<svg width="133" height="133" viewBox="0 0 133 133" fill="none" xmlns="http://www.w3.org/2000/svg">
<mask id="path-1-inside-1_518_20" fill="white">
<path d="M66.5 0C29.7973 0 0 29.7973 0 66.5C0 103.203 29.7973 133 66.5 133C103.136 133 132.882 103.309 132.989 66.6968C132.995 66.6314 132.999 66.5657 133 66.5C132.999 66.441 132.997 66.382 132.992 66.3231C132.896 29.7016 103.144 0 66.5 0ZM68.2955 4.03389C69.7159 4.07379 71.1284 4.15093 72.5249 4.28393C72.6074 4.32915 72.2336 4.36639 70.6802 4.76672C70.2626 4.50072 69.3449 4.25999 68.2955 4.03389ZM88.5727 10.2104C89.5702 10.0375 91.1688 10.9911 90.2192 12.8358C93.5868 16.1076 96.5407 21.6511 90.5158 24.069C89.3401 24.5757 87.7893 24.1634 87.2427 22.9385C88.4423 23.0689 88.2003 22.3586 86.712 20.4647C89.9851 21.139 82.7619 13.6897 83.0492 15.6674C75.4642 13.7376 84.5454 10.2982 88.1072 11.7865C87.5938 10.8209 87.9742 10.3142 88.5727 10.2104ZM94.2425 10.4751C97.695 12.184 100.982 14.2085 104.062 16.5226C103.818 16.8644 103.897 17.1104 105.006 17.2634C119.615 28.7001 129.01 46.4875 129.01 66.5C129.01 92.04 113.72 113.968 91.7939 123.671C93.0388 122.585 94.3542 121.235 95.6456 120.69C98.3402 118.049 105.877 112.763 102.562 109.458C101.303 106.855 98.6275 104.977 98.5051 101.826C94.6534 100.56 97.4385 91.5785 101.639 96.2827C104.989 100.065 108.646 92.7422 105.605 93.8554C100.966 94.047 106.275 90.4493 108.557 89.2191C110.629 84.8261 111.451 95.9888 113.521 91.2673C112.71 92.4403 118.772 95.5831 116.019 90.6994C112.398 90.7552 110.633 85.9087 107.749 85.7172C105.621 82.7912 104.421 85.9486 106.782 86.8064C108.059 89.8854 103.576 88.7363 102.197 90.4107C100.488 87.6164 93.91 86.7373 89.8974 86.7399C87.4754 85.8222 82.2153 84.995 79.6803 85.7092C80.5475 88.3187 75.802 91.7634 74.0438 87.913C69.68 87.7574 71.3572 86.0377 73.7166 84.1637C74.8471 79.2401 70.3051 86.5125 67.3672 83.3897C63.852 85.394 62.6696 90.1408 64.235 92.6478C68.5974 97.5688 62.2919 96.82 58.6184 96.3851C61.9381 94.7053 55.3054 95.1043 52.2437 93.4405C51.1664 95.9914 42.0626 90.4028 47.5196 90.2977C51.5947 88.7336 42.9391 88.0686 44.0257 85.0442C42.6265 80.7164 42.5201 76.7224 38.2734 73.3668C35.2277 70.0218 39.1831 63.5261 41.3524 69.7346C43.342 72.5701 44.5763 74.3018 47.3706 71.1005C52.3076 69.6348 51.3114 62.9077 48.0755 60.2583C42.7156 57.9947 52.2304 52.4339 50.2979 56.3215C47.1951 61.3396 55.2389 59.0906 53.47 55.0261C59.584 54.2946 65.5677 50.9204 68.0534 45.0272C72.07 40.3855 61.8357 35.4658 69.0616 33.3258C66.2154 31.1499 68.1293 31.6819 69.9607 30.6525C70.7454 31.0435 73.8629 34.7582 71.8147 36.2638C73.8296 39.1991 73.5876 38.1524 75.9031 36.5125C75.4908 39.1539 78.8251 39.3946 77.6521 42.9829C80.2482 41.0292 81.8775 37.3584 85.5283 37.2294C90.4028 37.7507 90.9028 31.1845 88.1019 27.4592C90.2737 27.6906 94.8716 22.9638 95.1575 19.0695C97.3227 16.2473 91.907 11.708 94.2744 11.1228C94.2461 10.9077 94.2355 10.6919 94.2425 10.4751ZM84.0627 18.0228C84.5282 18.1864 86.8291 24.2472 86.5537 25.4043C84.6944 27.0323 88.1285 31.8535 85.2636 32.1461C83.6384 34.6332 80.449 33.25 78.3742 36.5205C78.3476 37.0764 77.0802 37.0578 77.4565 36.3542C78.4115 32.44 72.6646 30.6392 76.7809 27.7757C79.8333 26.4457 84.0799 25.1423 84.3699 20.2253C83.9549 18.5695 83.9057 17.9683 84.0627 18.0228ZM8.34043 43.9698C8.46545 43.9578 8.60776 44.1028 8.77933 44.4446C14.1645 45.1469 9.50817 48.674 12.4116 51.3939C11.7093 57.0956 11.6242 63.2907 13.2495 68.9658C14.8455 68.9552 15.5703 68.1319 15.2764 72.0089C19.7252 74.6649 15.1886 65.4653 16.6928 63.433C16.8059 58.2527 22.5422 56.3308 25.7448 52.8994C31.4106 50.6225 30.719 58.6131 31.3774 61.6123C33.8778 61.0936 35.4405 61.0497 35.0522 64.896C33.7035 68.6812 34.4789 73.4785 37.0272 76.6373C39.4398 83.9416 34.6199 74.762 30.993 75.161C30.6605 77.9008 33.7767 81.2856 34.6784 83.9057C35.2862 89.2164 39.4212 88.3718 42.0772 92.2209C45.5206 96.3997 51.0228 97.0887 56.1353 97.6659C60.6108 97.5422 64.9 100.63 68.6426 100.021C65.162 99.3151 70.3371 97.1831 70.3105 98.7778C66.6264 103.924 76.9924 97.3121 76.3872 96.9158C81.6407 97.4478 73.8177 94.4234 71.4848 96.437C68.5562 98.9267 68.354 93.4179 67.7156 96.7229C66.6942 95.5844 65.8855 89.6885 68.6639 94.1401C73.545 96.0686 70.8664 91.0305 68.6426 88.8254C72.8521 88.731 75.2886 93.0707 80.2336 91.0678C85.8887 94.0842 78.7254 88.1311 82.4334 88.5315C82.5864 93.91 89.509 89.6181 91.4348 94.1972C87.3278 97.4877 92.6066 95.4528 94.4539 97.094C96.6631 97.1578 92.7223 107.55 91.9309 104.926C87.1177 105.285 87.9183 103.788 89.0528 100.166C88.0367 99.9854 79.8053 98.6288 79.6231 101.395C79.7202 105.892 75.5985 102.664 72.8042 104.144C68.6892 106.973 65.9401 111.559 60.1985 111.157C52.8063 112.803 60.4565 118.905 60.0389 122.512C65.0756 125.032 71.6817 121.363 77.2624 120.936C81.4306 120.914 83.7421 123.48 87.3358 123.658C87.6776 124.404 88.0593 124.827 88.4716 125.035C81.4457 127.668 74.0031 129.014 66.5 129.01C31.9533 129.01 3.99 101.047 3.99 66.5C3.99 61.4819 4.59781 56.6101 5.71235 51.9352C7.51184 49.8577 7.58499 44.035 8.34043 43.9698ZM67.7888 49.1821C66.3391 49.085 63.8161 51.4032 65.9361 53.7972C68.5336 54.9676 67.4815 53.5086 67.9963 52.4672C69.1401 50.1663 68.6573 49.2393 67.7888 49.1821ZM67.3831 57.6063C66.355 57.7087 65.3243 58.8764 65.17 61.3702C64.8202 65.1115 67.052 67.7741 63.6405 70.5445C60.245 73.9693 58.6623 79.687 53.2732 80.9478C50.8725 85.9326 49.8058 78.9408 47.8906 78.6057C49.8497 81.5503 47.4198 86.599 50.4416 88.4064C51.3114 91.9948 57.9481 90.9973 59.2728 92.2235C61.1268 93.2716 61.1002 85.8049 63.5022 85.5536C66.25 83.9682 60.4365 80.9026 64.4771 79.6364C68.3022 79.8492 69.7665 72.6326 72.1445 78.091C77.8462 78.99 75.3538 69.4194 72.9558 67.02C73.3123 64.4438 66.2327 64.3733 69.4765 61.9261C70.0245 59.0986 68.7051 57.4733 67.3831 57.6063ZM66.6968 68.882C67.2249 70.4647 66.7793 70.2094 68.3647 69.7106C68.3913 72.2589 69.1573 76.354 65.8217 77.535L65.5078 77.8263L64.513 77.821C58.3631 75.2647 65.718 71.9796 66.6968 68.882ZM78.2851 82.3682C77.0748 82.2445 74.7008 84.854 75.8645 87.8997C76.8913 90.0583 78.9741 87.5619 78.1947 86.039C79.3199 83.5027 79.0126 82.444 78.2851 82.3682Z"/>
</mask>
<path d="M66.5 0C29.7973 0 0 29.7973 0 66.5C0 103.203 29.7973 133 66.5 133C103.136 133 132.882 103.309 132.989 66.6968C132.995 66.6314 132.999 66.5657 133 66.5C132.999 66.441 132.997 66.382 132.992 66.3231C132.896 29.7016 103.144 0 66.5 0ZM68.2955 4.03389C69.7159 4.07379 71.1284 4.15093 72.5249 4.28393C72.6074 4.32915 72.2336 4.36639 70.6802 4.76672C70.2626 4.50072 69.3449 4.25999 68.2955 4.03389ZM88.5727 10.2104C89.5702 10.0375 91.1688 10.9911 90.2192 12.8358C93.5868 16.1076 96.5407 21.6511 90.5158 24.069C89.3401 24.5757 87.7893 24.1634 87.2427 22.9385C88.4423 23.0689 88.2003 22.3586 86.712 20.4647C89.9851 21.139 82.7619 13.6897 83.0492 15.6674C75.4642 13.7376 84.5454 10.2982 88.1072 11.7865C87.5938 10.8209 87.9742 10.3142 88.5727 10.2104ZM94.2425 10.4751C97.695 12.184 100.982 14.2085 104.062 16.5226C103.818 16.8644 103.897 17.1104 105.006 17.2634C119.615 28.7001 129.01 46.4875 129.01 66.5C129.01 92.04 113.72 113.968 91.7939 123.671C93.0388 122.585 94.3542 121.235 95.6456 120.69C98.3402 118.049 105.877 112.763 102.562 109.458C101.303 106.855 98.6275 104.977 98.5051 101.826C94.6534 100.56 97.4385 91.5785 101.639 96.2827C104.989 100.065 108.646 92.7422 105.605 93.8554C100.966 94.047 106.275 90.4493 108.557 89.2191C110.629 84.8261 111.451 95.9888 113.521 91.2673C112.71 92.4403 118.772 95.5831 116.019 90.6994C112.398 90.7552 110.633 85.9087 107.749 85.7172C105.621 82.7912 104.421 85.9486 106.782 86.8064C108.059 89.8854 103.576 88.7363 102.197 90.4107C100.488 87.6164 93.91 86.7373 89.8974 86.7399C87.4754 85.8222 82.2153 84.995 79.6803 85.7092C80.5475 88.3187 75.802 91.7634 74.0438 87.913C69.68 87.7574 71.3572 86.0377 73.7166 84.1637C74.8471 79.2401 70.3051 86.5125 67.3672 83.3897C63.852 85.394 62.6696 90.1408 64.235 92.6478C68.5974 97.5688 62.2919 96.82 58.6184 96.3851C61.9381 94.7053 55.3054 95.1043 52.2437 93.4405C51.1664 95.9914 42.0626 90.4028 47.5196 90.2977C51.5947 88.7336 42.9391 88.0686 44.0257 85.0442C42.6265 80.7164 42.5201 76.7224 38.2734 73.3668C35.2277 70.0218 39.1831 63.5261 41.3524 69.7346C43.342 72.5701 44.5763 74.3018 47.3706 71.1005C52.3076 69.6348 51.3114 62.9077 48.0755 60.2583C42.7156 57.9947 52.2304 52.4339 50.2979 56.3215C47.1951 61.3396 55.2389 59.0906 53.47 55.0261C59.584 54.2946 65.5677 50.9204 68.0534 45.0272C72.07 40.3855 61.8357 35.4658 69.0616 33.3258C66.2154 31.1499 68.1293 31.6819 69.9607 30.6525C70.7454 31.0435 73.8629 34.7582 71.8147 36.2638C73.8296 39.1991 73.5876 38.1524 75.9031 36.5125C75.4908 39.1539 78.8251 39.3946 77.6521 42.9829C80.2482 41.0292 81.8775 37.3584 85.5283 37.2294C90.4028 37.7507 90.9028 31.1845 88.1019 27.4592C90.2737 27.6906 94.8716 22.9638 95.1575 19.0695C97.3227 16.2473 91.907 11.708 94.2744 11.1228C94.2461 10.9077 94.2355 10.6919 94.2425 10.4751ZM84.0627 18.0228C84.5282 18.1864 86.8291 24.2472 86.5537 25.4043C84.6944 27.0323 88.1285 31.8535 85.2636 32.1461C83.6384 34.6332 80.449 33.25 78.3742 36.5205C78.3476 37.0764 77.0802 37.0578 77.4565 36.3542C78.4115 32.44 72.6646 30.6392 76.7809 27.7757C79.8333 26.4457 84.0799 25.1423 84.3699 20.2253C83.9549 18.5695 83.9057 17.9683 84.0627 18.0228ZM8.34043 43.9698C8.46545 43.9578 8.60776 44.1028 8.77933 44.4446C14.1645 45.1469 9.50817 48.674 12.4116 51.3939C11.7093 57.0956 11.6242 63.2907 13.2495 68.9658C14.8455 68.9552 15.5703 68.1319 15.2764 72.0089C19.7252 74.6649 15.1886 65.4653 16.6928 63.433C16.8059 58.2527 22.5422 56.3308 25.7448 52.8994C31.4106 50.6225 30.719 58.6131 31.3774 61.6123C33.8778 61.0936 35.4405 61.0497 35.0522 64.896C33.7035 68.6812 34.4789 73.4785 37.0272 76.6373C39.4398 83.9416 34.6199 74.762 30.993 75.161C30.6605 77.9008 33.7767 81.2856 34.6784 83.9057C35.2862 89.2164 39.4212 88.3718 42.0772 92.2209C45.5206 96.3997 51.0228 97.0887 56.1353 97.6659C60.6108 97.5422 64.9 100.63 68.6426 100.021C65.162 99.3151 70.3371 97.1831 70.3105 98.7778C66.6264 103.924 76.9924 97.3121 76.3872 96.9158C81.6407 97.4478 73.8177 94.4234 71.4848 96.437C68.5562 98.9267 68.354 93.4179 67.7156 96.7229C66.6942 95.5844 65.8855 89.6885 68.6639 94.1401C73.545 96.0686 70.8664 91.0305 68.6426 88.8254C72.8521 88.731 75.2886 93.0707 80.2336 91.0678C85.8887 94.0842 78.7254 88.1311 82.4334 88.5315C82.5864 93.91 89.509 89.6181 91.4348 94.1972C87.3278 97.4877 92.6066 95.4528 94.4539 97.094C96.6631 97.1578 92.7223 107.55 91.9309 104.926C87.1177 105.285 87.9183 103.788 89.0528 100.166C88.0367 99.9854 79.8053 98.6288 79.6231 101.395C79.7202 105.892 75.5985 102.664 72.8042 104.144C68.6892 106.973 65.9401 111.559 60.1985 111.157C52.8063 112.803 60.4565 118.905 60.0389 122.512C65.0756 125.032 71.6817 121.363 77.2624 120.936C81.4306 120.914 83.7421 123.48 87.3358 123.658C87.6776 124.404 88.0593 124.827 88.4716 125.035C81.4457 127.668 74.0031 129.014 66.5 129.01C31.9533 129.01 3.99 101.047 3.99 66.5C3.99 61.4819 4.59781 56.6101 5.71235 51.9352C7.51184 49.8577 7.58499 44.035 8.34043 43.9698ZM67.7888 49.1821C66.3391 49.085 63.8161 51.4032 65.9361 53.7972C68.5336 54.9676 67.4815 53.5086 67.9963 52.4672C69.1401 50.1663 68.6573 49.2393 67.7888 49.1821ZM67.3831 57.6063C66.355 57.7087 65.3243 58.8764 65.17 61.3702C64.8202 65.1115 67.052 67.7741 63.6405 70.5445C60.245 73.9693 58.6623 79.687 53.2732 80.9478C50.8725 85.9326 49.8058 78.9408 47.8906 78.6057C49.8497 81.5503 47.4198 86.599 50.4416 88.4064C51.3114 91.9948 57.9481 90.9973 59.2728 92.2235C61.1268 93.2716 61.1002 85.8049 63.5022 85.5536C66.25 83.9682 60.4365 80.9026 64.4771 79.6364C68.3022 79.8492 69.7665 72.6326 72.1445 78.091C77.8462 78.99 75.3538 69.4194 72.9558 67.02C73.3123 64.4438 66.2327 64.3733 69.4765 61.9261C70.0245 59.0986 68.7051 57.4733 67.3831 57.6063ZM66.6968 68.882C67.2249 70.4647 66.7793 70.2094 68.3647 69.7106C68.3913 72.2589 69.1573 76.354 65.8217 77.535L65.5078 77.8263L64.513 77.821C58.3631 75.2647 65.718 71.9796 66.6968 68.882ZM78.2851 82.3682C77.0748 82.2445 74.7008 84.854 75.8645 87.8997C76.8913 90.0583 78.9741 87.5619 78.1947 86.039C79.3199 83.5027 79.0126 82.444 78.2851 82.3682Z" fill="#DADADA"/>
<path d="M66.5 0C29.7973 0 0 29.7973 0 66.5C0 103.203 29.7973 133 66.5 133C103.136 133 132.882 103.309 132.989 66.6968C132.995 66.6314 132.999 66.5657 133 66.5C132.999 66.441 132.997 66.382 132.992 66.3231C132.896 29.7016 103.144 0 66.5 0ZM68.2955 4.03389C69.7159 4.07379 71.1284 4.15093 72.5249 4.28393C72.6074 4.32915 72.2336 4.36639 70.6802 4.76672C70.2626 4.50072 69.3449 4.25999 68.2955 4.03389ZM88.5727 10.2104C89.5702 10.0375 91.1688 10.9911 90.2192 12.8358C93.5868 16.1076 96.5407 21.6511 90.5158 24.069C89.3401 24.5757 87.7893 24.1634 87.2427 22.9385C88.4423 23.0689 88.2003 22.3586 86.712 20.4647C89.9851 21.139 82.7619 13.6897 83.0492 15.6674C75.4642 13.7376 84.5454 10.2982 88.1072 11.7865C87.5938 10.8209 87.9742 10.3142 88.5727 10.2104ZM94.2425 10.4751C97.695 12.184 100.982 14.2085 104.062 16.5226C103.818 16.8644 103.897 17.1104 105.006 17.2634C119.615 28.7001 129.01 46.4875 129.01 66.5C129.01 92.04 113.72 113.968 91.7939 123.671C93.0388 122.585 94.3542 121.235 95.6456 120.69C98.3402 118.049 105.877 112.763 102.562 109.458C101.303 106.855 98.6275 104.977 98.5051 101.826C94.6534 100.56 97.4385 91.5785 101.639 96.2827C104.989 100.065 108.646 92.7422 105.605 93.8554C100.966 94.047 106.275 90.4493 108.557 89.2191C110.629 84.8261 111.451 95.9888 113.521 91.2673C112.71 92.4403 118.772 95.5831 116.019 90.6994C112.398 90.7552 110.633 85.9087 107.749 85.7172C105.621 82.7912 104.421 85.9486 106.782 86.8064C108.059 89.8854 103.576 88.7363 102.197 90.4107C100.488 87.6164 93.91 86.7373 89.8974 86.7399C87.4754 85.8222 82.2153 84.995 79.6803 85.7092C80.5475 88.3187 75.802 91.7634 74.0438 87.913C69.68 87.7574 71.3572 86.0377 73.7166 84.1637C74.8471 79.2401 70.3051 86.5125 67.3672 83.3897C63.852 85.394 62.6696 90.1408 64.235 92.6478C68.5974 97.5688 62.2919 96.82 58.6184 96.3851C61.9381 94.7053 55.3054 95.1043 52.2437 93.4405C51.1664 95.9914 42.0626 90.4028 47.5196 90.2977C51.5947 88.7336 42.9391 88.0686 44.0257 85.0442C42.6265 80.7164 42.5201 76.7224 38.2734 73.3668C35.2277 70.0218 39.1831 63.5261 41.3524 69.7346C43.342 72.5701 44.5763 74.3018 47.3706 71.1005C52.3076 69.6348 51.3114 62.9077 48.0755 60.2583C42.7156 57.9947 52.2304 52.4339 50.2979 56.3215C47.1951 61.3396 55.2389 59.0906 53.47 55.0261C59.584 54.2946 65.5677 50.9204 68.0534 45.0272C72.07 40.3855 61.8357 35.4658 69.0616 33.3258C66.2154 31.1499 68.1293 31.6819 69.9607 30.6525C70.7454 31.0435 73.8629 34.7582 71.8147 36.2638C73.8296 39.1991 73.5876 38.1524 75.9031 36.5125C75.4908 39.1539 78.8251 39.3946 77.6521 42.9829C80.2482 41.0292 81.8775 37.3584 85.5283 37.2294C90.4028 37.7507 90.9028 31.1845 88.1019 27.4592C90.2737 27.6906 94.8716 22.9638 95.1575 19.0695C97.3227 16.2473 91.907 11.708 94.2744 11.1228C94.2461 10.9077 94.2355 10.6919 94.2425 10.4751ZM84.0627 18.0228C84.5282 18.1864 86.8291 24.2472 86.5537 25.4043C84.6944 27.0323 88.1285 31.8535 85.2636 32.1461C83.6384 34.6332 80.449 33.25 78.3742 36.5205C78.3476 37.0764 77.0802 37.0578 77.4565 36.3542C78.4115 32.44 72.6646 30.6392 76.7809 27.7757C79.8333 26.4457 84.0799 25.1423 84.3699 20.2253C83.9549 18.5695 83.9057 17.9683 84.0627 18.0228ZM8.34043 43.9698C8.46545 43.9578 8.60776 44.1028 8.77933 44.4446C14.1645 45.1469 9.50817 48.674 12.4116 51.3939C11.7093 57.0956 11.6242 63.2907 13.2495 68.9658C14.8455 68.9552 15.5703 68.1319 15.2764 72.0089C19.7252 74.6649 15.1886 65.4653 16.6928 63.433C16.8059 58.2527 22.5422 56.3308 25.7448 52.8994C31.4106 50.6225 30.719 58.6131 31.3774 61.6123C33.8778 61.0936 35.4405 61.0497 35.0522 64.896C33.7035 68.6812 34.4789 73.4785 37.0272 76.6373C39.4398 83.9416 34.6199 74.762 30.993 75.161C30.6605 77.9008 33.7767 81.2856 34.6784 83.9057C35.2862 89.2164 39.4212 88.3718 42.0772 92.2209C45.5206 96.3997 51.0228 97.0887 56.1353 97.6659C60.6108 97.5422 64.9 100.63 68.6426 100.021C65.162 99.3151 70.3371 97.1831 70.3105 98.7778C66.6264 103.924 76.9924 97.3121 76.3872 96.9158C81.6407 97.4478 73.8177 94.4234 71.4848 96.437C68.5562 98.9267 68.354 93.4179 67.7156 96.7229C66.6942 95.5844 65.8855 89.6885 68.6639 94.1401C73.545 96.0686 70.8664 91.0305 68.6426 88.8254C72.8521 88.731 75.2886 93.0707 80.2336 91.0678C85.8887 94.0842 78.7254 88.1311 82.4334 88.5315C82.5864 93.91 89.509 89.6181 91.4348 94.1972C87.3278 97.4877 92.6066 95.4528 94.4539 97.094C96.6631 97.1578 92.7223 107.55 91.9309 104.926C87.1177 105.285 87.9183 103.788 89.0528 100.166C88.0367 99.9854 79.8053 98.6288 79.6231 101.395C79.7202 105.892 75.5985 102.664 72.8042 104.144C68.6892 106.973 65.9401 111.559 60.1985 111.157C52.8063 112.803 60.4565 118.905 60.0389 122.512C65.0756 125.032 71.6817 121.363 77.2624 120.936C81.4306 120.914 83.7421 123.48 87.3358 123.658C87.6776 124.404 88.0593 124.827 88.4716 125.035C81.4457 127.668 74.0031 129.014 66.5 129.01C31.9533 129.01 3.99 101.047 3.99 66.5C3.99 61.4819 4.59781 56.6101 5.71235 51.9352C7.51184 49.8577 7.58499 44.035 8.34043 43.9698ZM67.7888 49.1821C66.3391 49.085 63.8161 51.4032 65.9361 53.7972C68.5336 54.9676 67.4815 53.5086 67.9963 52.4672C69.1401 50.1663 68.6573 49.2393 67.7888 49.1821ZM67.3831 57.6063C66.355 57.7087 65.3243 58.8764 65.17 61.3702C64.8202 65.1115 67.052 67.7741 63.6405 70.5445C60.245 73.9693 58.6623 79.687 53.2732 80.9478C50.8725 85.9326 49.8058 78.9408 47.8906 78.6057C49.8497 81.5503 47.4198 86.599 50.4416 88.4064C51.3114 91.9948 57.9481 90.9973 59.2728 92.2235C61.1268 93.2716 61.1002 85.8049 63.5022 85.5536C66.25 83.9682 60.4365 80.9026 64.4771 79.6364C68.3022 79.8492 69.7665 72.6326 72.1445 78.091C77.8462 78.99 75.3538 69.4194 72.9558 67.02C73.3123 64.4438 66.2327 64.3733 69.4765 61.9261C70.0245 59.0986 68.7051 57.4733 67.3831 57.6063ZM66.6968 68.882C67.2249 70.4647 66.7793 70.2094 68.3647 69.7106C68.3913 72.2589 69.1573 76.354 65.8217 77.535L65.5078 77.8263L64.513 77.821C58.3631 75.2647 65.718 71.9796 66.6968 68.882ZM78.2851 82.3682C77.0748 82.2445 74.7008 84.854 75.8645 87.8997C76.8913 90.0583 78.9741 87.5619 78.1947 86.039C79.3199 83.5027 79.0126 82.444 78.2851 82.3682Z" fill="url(#paint0_linear_518_20)" fill-opacity="0.25"/>
<path d="M66.5 0C29.7973 0 0 29.7973 0 66.5C0 103.203 29.7973 133 66.5 133C103.136 133 132.882 103.309 132.989 66.6968C132.995 66.6314 132.999 66.5657 133 66.5C132.999 66.441 132.997 66.382 132.992 66.3231C132.896 29.7016 103.144 0 66.5 0ZM68.2955 4.03389C69.7159 4.07379 71.1284 4.15093 72.5249 4.28393C72.6074 4.32915 72.2336 4.36639 70.6802 4.76672C70.2626 4.50072 69.3449 4.25999 68.2955 4.03389ZM88.5727 10.2104C89.5702 10.0375 91.1688 10.9911 90.2192 12.8358C93.5868 16.1076 96.5407 21.6511 90.5158 24.069C89.3401 24.5757 87.7893 24.1634 87.2427 22.9385C88.4423 23.0689 88.2003 22.3586 86.712 20.4647C89.9851 21.139 82.7619 13.6897 83.0492 15.6674C75.4642 13.7376 84.5454 10.2982 88.1072 11.7865C87.5938 10.8209 87.9742 10.3142 88.5727 10.2104ZM94.2425 10.4751C97.695 12.184 100.982 14.2085 104.062 16.5226C103.818 16.8644 103.897 17.1104 105.006 17.2634C119.615 28.7001 129.01 46.4875 129.01 66.5C129.01 92.04 113.72 113.968 91.7939 123.671C93.0388 122.585 94.3542 121.235 95.6456 120.69C98.3402 118.049 105.877 112.763 102.562 109.458C101.303 106.855 98.6275 104.977 98.5051 101.826C94.6534 100.56 97.4385 91.5785 101.639 96.2827C104.989 100.065 108.646 92.7422 105.605 93.8554C100.966 94.047 106.275 90.4493 108.557 89.2191C110.629 84.8261 111.451 95.9888 113.521 91.2673C112.71 92.4403 118.772 95.5831 116.019 90.6994C112.398 90.7552 110.633 85.9087 107.749 85.7172C105.621 82.7912 104.421 85.9486 106.782 86.8064C108.059 89.8854 103.576 88.7363 102.197 90.4107C100.488 87.6164 93.91 86.7373 89.8974 86.7399C87.4754 85.8222 82.2153 84.995 79.6803 85.7092C80.5475 88.3187 75.802 91.7634 74.0438 87.913C69.68 87.7574 71.3572 86.0377 73.7166 84.1637C74.8471 79.2401 70.3051 86.5125 67.3672 83.3897C63.852 85.394 62.6696 90.1408 64.235 92.6478C68.5974 97.5688 62.2919 96.82 58.6184 96.3851C61.9381 94.7053 55.3054 95.1043 52.2437 93.4405C51.1664 95.9914 42.0626 90.4028 47.5196 90.2977C51.5947 88.7336 42.9391 88.0686 44.0257 85.0442C42.6265 80.7164 42.5201 76.7224 38.2734 73.3668C35.2277 70.0218 39.1831 63.5261 41.3524 69.7346C43.342 72.5701 44.5763 74.3018 47.3706 71.1005C52.3076 69.6348 51.3114 62.9077 48.0755 60.2583C42.7156 57.9947 52.2304 52.4339 50.2979 56.3215C47.1951 61.3396 55.2389 59.0906 53.47 55.0261C59.584 54.2946 65.5677 50.9204 68.0534 45.0272C72.07 40.3855 61.8357 35.4658 69.0616 33.3258C66.2154 31.1499 68.1293 31.6819 69.9607 30.6525C70.7454 31.0435 73.8629 34.7582 71.8147 36.2638C73.8296 39.1991 73.5876 38.1524 75.9031 36.5125C75.4908 39.1539 78.8251 39.3946 77.6521 42.9829C80.2482 41.0292 81.8775 37.3584 85.5283 37.2294C90.4028 37.7507 90.9028 31.1845 88.1019 27.4592C90.2737 27.6906 94.8716 22.9638 95.1575 19.0695C97.3227 16.2473 91.907 11.708 94.2744 11.1228C94.2461 10.9077 94.2355 10.6919 94.2425 10.4751ZM84.0627 18.0228C84.5282 18.1864 86.8291 24.2472 86.5537 25.4043C84.6944 27.0323 88.1285 31.8535 85.2636 32.1461C83.6384 34.6332 80.449 33.25 78.3742 36.5205C78.3476 37.0764 77.0802 37.0578 77.4565 36.3542C78.4115 32.44 72.6646 30.6392 76.7809 27.7757C79.8333 26.4457 84.0799 25.1423 84.3699 20.2253C83.9549 18.5695 83.9057 17.9683 84.0627 18.0228ZM8.34043 43.9698C8.46545 43.9578 8.60776 44.1028 8.77933 44.4446C14.1645 45.1469 9.50817 48.674 12.4116 51.3939C11.7093 57.0956 11.6242 63.2907 13.2495 68.9658C14.8455 68.9552 15.5703 68.1319 15.2764 72.0089C19.7252 74.6649 15.1886 65.4653 16.6928 63.433C16.8059 58.2527 22.5422 56.3308 25.7448 52.8994C31.4106 50.6225 30.719 58.6131 31.3774 61.6123C33.8778 61.0936 35.4405 61.0497 35.0522 64.896C33.7035 68.6812 34.4789 73.4785 37.0272 76.6373C39.4398 83.9416 34.6199 74.762 30.993 75.161C30.6605 77.9008 33.7767 81.2856 34.6784 83.9057C35.2862 89.2164 39.4212 88.3718 42.0772 92.2209C45.5206 96.3997 51.0228 97.0887 56.1353 97.6659C60.6108 97.5422 64.9 100.63 68.6426 100.021C65.162 99.3151 70.3371 97.1831 70.3105 98.7778C66.6264 103.924 76.9924 97.3121 76.3872 96.9158C81.6407 97.4478 73.8177 94.4234 71.4848 96.437C68.5562 98.9267 68.354 93.4179 67.7156 96.7229C66.6942 95.5844 65.8855 89.6885 68.6639 94.1401C73.545 96.0686 70.8664 91.0305 68.6426 88.8254C72.8521 88.731 75.2886 93.0707 80.2336 91.0678C85.8887 94.0842 78.7254 88.1311 82.4334 88.5315C82.5864 93.91 89.509 89.6181 91.4348 94.1972C87.3278 97.4877 92.6066 95.4528 94.4539 97.094C96.6631 97.1578 92.7223 107.55 91.9309 104.926C87.1177 105.285 87.9183 103.788 89.0528 100.166C88.0367 99.9854 79.8053 98.6288 79.6231 101.395C79.7202 105.892 75.5985 102.664 72.8042 104.144C68.6892 106.973 65.9401 111.559 60.1985 111.157C52.8063 112.803 60.4565 118.905 60.0389 122.512C65.0756 125.032 71.6817 121.363 77.2624 120.936C81.4306 120.914 83.7421 123.48 87.3358 123.658C87.6776 124.404 88.0593 124.827 88.4716 125.035C81.4457 127.668 74.0031 129.014 66.5 129.01C31.9533 129.01 3.99 101.047 3.99 66.5C3.99 61.4819 4.59781 56.6101 5.71235 51.9352C7.51184 49.8577 7.58499 44.035 8.34043 43.9698ZM67.7888 49.1821C66.3391 49.085 63.8161 51.4032 65.9361 53.7972C68.5336 54.9676 67.4815 53.5086 67.9963 52.4672C69.1401 50.1663 68.6573 49.2393 67.7888 49.1821ZM67.3831 57.6063C66.355 57.7087 65.3243 58.8764 65.17 61.3702C64.8202 65.1115 67.052 67.7741 63.6405 70.5445C60.245 73.9693 58.6623 79.687 53.2732 80.9478C50.8725 85.9326 49.8058 78.9408 47.8906 78.6057C49.8497 81.5503 47.4198 86.599 50.4416 88.4064C51.3114 91.9948 57.9481 90.9973 59.2728 92.2235C61.1268 93.2716 61.1002 85.8049 63.5022 85.5536C66.25 83.9682 60.4365 80.9026 64.4771 79.6364C68.3022 79.8492 69.7665 72.6326 72.1445 78.091C77.8462 78.99 75.3538 69.4194 72.9558 67.02C73.3123 64.4438 66.2327 64.3733 69.4765 61.9261C70.0245 59.0986 68.7051 57.4733 67.3831 57.6063ZM66.6968 68.882C67.2249 70.4647 66.7793 70.2094 68.3647 69.7106C68.3913 72.2589 69.1573 76.354 65.8217 77.535L65.5078 77.8263L64.513 77.821C58.3631 75.2647 65.718 71.9796 66.6968 68.882ZM78.2851 82.3682C77.0748 82.2445 74.7008 84.854 75.8645 87.8997C76.8913 90.0583 78.9741 87.5619 78.1947 86.039C79.3199 83.5027 79.0126 82.444 78.2851 82.3682Z" stroke="black" stroke-width="2" mask="url(#path-1-inside-1_518_20)"/>
<defs>
<linearGradient id="paint0_linear_518_20" x1="33.5" y1="13" x2="88.5" y2="75.5" gradientUnits="userSpaceOnUse">
<stop stop-color="white" stop-opacity="0"/>
<stop offset="0.29" stop-opacity="0.0349645"/>
<stop offset="0.705" stop-opacity="0.085"/>
<stop offset="1"/>
</linearGradient>
</defs>
</svg>
