<svg width="484" height="133" viewBox="0 0 484 133" fill="none" xmlns="http://www.w3.org/2000/svg">
<path d="M208.634 27.7963C208.634 29.1883 208.17 30.387 207.242 31.3923C206.353 32.359 205.27 32.8423 203.994 32.8423C202.718 32.8423 201.616 32.359 200.688 31.3923C199.76 30.387 199.296 29.1883 199.296 27.7963C199.296 26.4043 199.76 25.225 200.688 24.2583C201.616 23.253 202.718 22.7503 203.994 22.7503C205.27 22.7503 206.353 23.253 207.242 24.2583C208.17 25.225 208.634 26.4043 208.634 27.7963ZM207.01 27.7963C207.01 26.8683 206.72 26.095 206.14 25.4763C205.56 24.819 204.845 24.4903 203.994 24.4903C203.143 24.4903 202.428 24.819 201.848 25.4763C201.268 26.095 200.978 26.8683 200.978 27.7963C200.978 28.6856 201.268 29.459 201.848 30.1163C202.428 30.7736 203.143 31.1023 203.994 31.1023C204.845 31.1023 205.56 30.7736 206.14 30.1163C206.72 29.459 207.01 28.6856 207.01 27.7963ZM205.212 44.3843C206.527 46.279 207.184 47.961 207.184 49.4303C207.184 50.8223 206.759 51.5183 205.908 51.5183C205.367 51.5183 204.864 51.1123 204.4 50.3003C199.644 42.1416 194.675 36.5156 189.494 33.4223C189.069 33.1903 188.856 32.9196 188.856 32.6103C188.856 32.3396 189.03 32.2043 189.378 32.2043C189.649 32.2043 189.919 32.2816 190.19 32.4363C191.659 33.0936 193.09 33.8863 194.482 34.8143C195.913 35.7423 197.343 36.767 198.774 37.8883C200.205 39.0096 201.461 40.1116 202.544 41.1943C203.627 42.277 204.516 43.3403 205.212 44.3843ZM180.91 36.9023C180.987 37.2116 180.949 37.4436 180.794 37.5983C180.639 37.8303 180.33 38.101 179.866 38.4103C179.325 38.797 178.319 39.841 176.85 41.5423C175.999 42.5476 175.303 43.3403 174.762 43.9203C174.259 44.5003 173.911 44.887 173.718 45.0803C169.89 48.7923 166.159 51.499 162.524 53.2003C162.021 53.3936 161.693 53.4903 161.538 53.4903C161.229 53.4903 161.113 53.3743 161.19 53.1423C161.267 52.949 161.557 52.6203 162.06 52.1563C168.827 47.3616 173.583 41.9676 176.328 35.9743C176.289 35.1623 175.864 34.1763 175.052 33.0163C174.897 32.8616 174.82 32.649 174.82 32.3783C174.82 32.0303 174.975 31.8563 175.284 31.8563C176.135 31.8563 177.449 32.7456 179.228 34.5243C180.156 35.4136 180.717 36.2063 180.91 36.9023ZM259.263 38.3523C259.263 38.971 258.915 39.3576 258.219 39.5123C257.562 39.6283 256.847 39.667 256.073 39.6283C255.764 39.5896 255.455 39.551 255.145 39.5123C254.875 39.4736 254.585 39.435 254.275 39.3963C248.359 39.2416 243.932 39.2416 240.993 39.3963C240.916 40.595 240.839 41.6583 240.761 42.5863C240.723 43.5143 240.665 44.307 240.587 44.9643C240.239 48.4443 239.137 52.0016 237.281 55.6363C235.387 59.3483 232.873 62.6543 229.741 65.5543C229.277 66.0183 228.91 66.2503 228.639 66.2503C228.485 66.2503 228.407 66.173 228.407 66.0183C228.407 65.7476 228.581 65.3996 228.929 64.9743C234.111 58.285 236.991 51.731 237.571 45.3123C237.649 44.423 237.707 43.5143 237.745 42.5863C237.823 41.6196 237.9 40.6336 237.977 39.6283C236.237 39.783 234.265 40.0536 232.061 40.4403C229.857 40.7883 227.421 41.233 224.753 41.7743C224.521 41.8516 224.135 42.103 223.593 42.5283C223.091 42.915 222.685 43.1083 222.375 43.1083C221.293 43.1083 219.456 41.6003 216.865 38.5843C216.672 38.391 216.575 38.159 216.575 37.8883C216.575 37.463 216.749 37.2503 217.097 37.2503C217.407 37.2503 217.755 37.3856 218.141 37.6563C219.572 38.623 220.964 39.1063 222.317 39.1063C224.715 39.1063 226.88 38.913 228.813 38.5263C229.857 38.333 231.133 38.1203 232.641 37.8883C234.149 37.6563 235.947 37.4436 238.035 37.2503V32.7843C237.997 32.475 237.939 32.185 237.861 31.9143C237.823 31.605 237.726 31.2956 237.571 30.9863C237.494 30.677 237.223 30.2516 236.759 29.7103C236.295 29.2463 235.773 28.8403 235.193 28.4923C233.221 29.2656 231.423 29.9423 229.799 30.5223C228.175 31.1023 226.745 31.547 225.507 31.8563C225.082 32.011 224.676 32.0883 224.289 32.0883C223.98 32.0883 223.825 31.9916 223.825 31.7983C223.825 31.4503 224.251 31.1023 225.101 30.7543C232.719 27.5836 238.383 24.5096 242.095 21.5323C242.405 21.223 242.559 20.991 242.559 20.8363C242.559 20.4883 242.25 20.0243 241.631 19.4443C241.399 19.2896 241.283 19.077 241.283 18.8063C241.283 18.5743 241.419 18.4583 241.689 18.4583C242.231 18.4583 243.468 19.077 245.401 20.3143C246.059 20.7783 246.561 21.2616 246.909 21.7643C247.103 21.9576 247.199 22.1703 247.199 22.4023C247.199 23.137 246.368 23.6396 244.705 23.9103C243.197 24.877 240.607 26.153 236.933 27.7383C237.359 27.9316 237.745 28.125 238.093 28.3183C238.48 28.5116 238.809 28.6856 239.079 28.8403C240.123 29.4976 240.761 30.0776 240.993 30.5803C241.187 31.083 241.283 31.6436 241.283 32.2623C241.283 32.765 241.264 33.403 241.225 34.1763C241.225 34.9496 241.206 35.8776 241.167 36.9603C242.018 36.883 242.869 36.8056 243.719 36.7283C244.609 36.651 245.517 36.593 246.445 36.5543C250.351 36.361 252.883 35.9743 254.043 35.3943C257.523 36.0516 259.263 37.0376 259.263 38.3523ZM312.329 27.7383C312.329 29.169 311.865 30.387 310.937 31.3923C310.048 32.359 308.965 32.8423 307.689 32.8423C306.413 32.8423 305.311 32.359 304.383 31.3923C303.455 30.387 302.991 29.169 302.991 27.7383C302.991 26.3463 303.455 25.167 304.383 24.2003C305.311 23.195 306.413 22.6923 307.689 22.6923C308.965 22.6923 310.048 23.195 310.937 24.2003C311.865 25.167 312.329 26.3463 312.329 27.7383ZM310.705 27.7383C310.705 26.849 310.415 26.095 309.835 25.4763C309.255 24.819 308.54 24.4903 307.689 24.4903C306.838 24.4903 306.123 24.819 305.543 25.4763C304.963 26.095 304.673 26.849 304.673 27.7383C304.673 28.6663 304.963 29.459 305.543 30.1163C306.123 30.735 306.838 31.0443 307.689 31.0443C308.54 31.0443 309.255 30.735 309.835 30.1163C310.415 29.459 310.705 28.6663 310.705 27.7383ZM315.925 54.1863C315.964 54.5343 315.809 54.7083 315.461 54.7083C314.688 54.7083 313.644 54.167 312.329 53.0843C308.501 50.1456 304.712 47.1103 300.961 43.9783C297.249 40.8463 293.479 37.579 289.651 34.1763C287.988 32.6296 286.616 31.8563 285.533 31.8563C284.334 31.8563 282.614 32.9583 280.371 35.1623C279.868 35.7036 279.385 36.245 278.921 36.7863C278.496 37.289 278.07 37.811 277.645 38.3523C276.833 39.5123 276.04 40.537 275.267 41.4263C274.61 42.1996 273.991 42.7603 273.411 43.1083C272.908 43.263 272.058 43.089 270.859 42.5863C270.472 42.393 270.066 42.1803 269.641 41.9483C269.216 41.6776 268.752 41.3876 268.249 41.0783C267.862 40.8076 267.669 40.5176 267.669 40.2083C267.669 39.9763 267.843 39.8603 268.191 39.8603C268.346 39.8603 268.829 39.9763 269.641 40.2083H270.047C270.782 40.2083 271.884 39.6283 273.353 38.4683C273.972 37.9656 274.571 37.4436 275.151 36.9023C275.731 36.3223 276.33 35.723 276.949 35.1043C277.49 34.6016 278.09 34.041 278.747 33.4223C279.443 32.8036 280.236 32.127 281.125 31.3923C282.324 30.4256 283.909 29.9423 285.881 29.9423C286.886 29.9423 287.969 30.3483 289.129 31.1603C289.438 31.3536 290.637 32.3396 292.725 34.1183C295.509 36.4383 298.699 38.9516 302.295 41.6583C305.93 44.365 310.086 47.3616 314.765 50.6483C315.074 50.8803 315.306 51.1896 315.461 51.5763C315.616 51.8856 315.712 52.2723 315.751 52.7363C315.828 53.1616 315.886 53.645 315.925 54.1863ZM369.976 21.7063C369.976 22.7116 369.57 23.2143 368.758 23.2143C368.14 23.2143 367.637 22.789 367.25 21.9383C366.438 20.1983 365.124 18.6516 363.306 17.2983C363.152 17.1823 363.074 17.0083 363.074 16.7763C363.152 16.583 363.306 16.4863 363.538 16.4863C364.544 16.4863 365.839 17.047 367.424 18.1683C369.126 19.4443 369.976 20.6236 369.976 21.7063ZM365.51 25.1283C365.51 26.1336 365.104 26.6363 364.292 26.6363C363.635 26.6363 363.132 26.211 362.784 25.3603C361.779 23.2723 360.464 21.5323 358.84 20.1403C358.647 19.9856 358.57 19.773 358.608 19.5023C358.647 19.2316 358.821 19.135 359.13 19.2123C360.406 19.483 361.721 20.2176 363.074 21.4163C364.698 22.7696 365.51 24.007 365.51 25.1283ZM356.578 22.2863C356.54 23.021 355.592 23.3883 353.736 23.3883C351.648 23.3883 349.85 23.427 348.342 23.5043C346.834 23.543 345.578 23.601 344.572 23.6783C343.799 23.7556 342.736 23.9103 341.382 24.1423C340.029 24.3356 338.347 24.6063 336.336 24.9543C335.254 25.109 333.494 24.065 331.058 21.8223C330.904 21.629 330.826 21.4356 330.826 21.2423C330.826 20.933 331 20.7783 331.348 20.7783C331.387 20.7783 331.6 20.817 331.986 20.8943C333.842 21.4743 335.756 21.745 337.728 21.7063C339.352 21.629 341.866 21.455 345.268 21.1843C348.439 20.9136 350.759 20.469 352.228 19.8503C355.167 20.3916 356.617 21.2036 356.578 22.2863ZM363.422 33.0743C363.384 33.8863 362.668 34.3116 361.276 34.3503C361.586 34.3503 361.508 34.331 361.044 34.2923C360.58 34.2536 359.71 34.1956 358.434 34.1183C355.998 34.0023 353.736 33.9443 351.648 33.9443C349.56 33.9443 347.588 34.0216 345.732 34.1763C347.202 35.2976 348.014 36.245 348.168 37.0183C348.207 37.2503 348.207 37.521 348.168 37.8303C348.168 38.101 348.13 38.391 348.052 38.7003C347.124 42.3736 345.79 46.3176 344.05 50.5323C341.576 56.487 337.612 61.6683 332.16 66.0763C331.774 66.463 331.406 66.6563 331.058 66.6563C330.904 66.6563 330.826 66.5596 330.826 66.3663C330.826 66.173 331.039 65.8056 331.464 65.2643C335.524 60.9723 338.734 55.9263 341.092 50.1263C342.755 46.221 343.954 42.4123 344.688 38.7003C344.843 38.1203 344.92 37.5016 344.92 36.8443C344.882 36.419 344.688 35.9356 344.34 35.3943C344.263 35.2396 344.147 35.085 343.992 34.9303C343.838 34.7756 343.664 34.6016 343.47 34.4083C340.222 34.679 336.298 35.375 331.696 36.4963C331.464 36.5736 331.039 36.825 330.42 37.2503C330.034 37.637 329.647 37.8303 329.26 37.8303C328.371 37.8303 326.534 36.3223 323.75 33.3063C323.596 33.113 323.518 32.881 323.518 32.6103C323.518 32.2236 323.673 32.0303 323.982 32.0303C324.253 32.0303 324.601 32.1463 325.026 32.3783C326.573 33.345 327.984 33.8283 329.26 33.8283C331.735 33.8283 333.881 33.635 335.698 33.2483C339.758 32.4363 344.688 31.8563 350.488 31.5083C354.239 31.2763 356.81 30.8123 358.202 30.1163C361.682 30.7736 363.422 31.7596 363.422 33.0743ZM406.686 32.5523C406.725 32.8616 406.686 33.0743 406.57 33.1903C406.493 33.2676 406.222 33.3836 405.758 33.5383C405.487 33.6156 405.217 33.8476 404.946 34.2343C402.742 37.405 400.596 40.0923 398.508 42.2963C399.668 43.147 400.267 44.2683 400.306 45.6603C400.383 47.0136 400.403 48.5216 400.364 50.1843C400.364 51.8083 400.325 53.5676 400.248 55.4623C400.209 56.4676 400.19 57.4536 400.19 58.4203C400.229 59.3483 400.287 60.257 400.364 61.1463C400.557 63.4276 400.615 64.9743 400.538 65.7863C400.499 66.753 400.248 67.2363 399.784 67.2363C399.397 67.2363 398.972 66.8496 398.508 66.0763C397.928 65.2643 397.58 64.3556 397.464 63.3503C397.425 62.8476 397.445 62.113 397.522 61.1463C397.599 60.2183 397.735 59.0196 397.928 57.5503C398.121 56.0036 398.257 54.4956 398.334 53.0263C398.45 51.5183 398.469 50.049 398.392 48.6183C398.276 45.8343 397.947 44.1136 397.406 43.4563C393.23 47.671 388.938 51.1896 384.53 54.0123C384.259 54.167 384.008 54.2443 383.776 54.2443C383.505 54.2443 383.37 54.1476 383.37 53.9543C383.37 53.645 383.602 53.3163 384.066 52.9683C388.938 49.2176 393.423 44.771 397.522 39.6283C400.886 35.4523 402.761 32.3976 403.148 30.4643C403.148 29.7296 402.897 29.0336 402.394 28.3763C402.239 28.2216 402.162 28.0476 402.162 27.8543C402.162 27.5836 402.297 27.4483 402.568 27.4483C402.761 27.4483 402.993 27.5256 403.264 27.6803C404.076 28.2603 404.791 29.0143 405.41 29.9423C406.183 30.9476 406.609 31.8176 406.686 32.5523ZM471.873 27.0423C471.912 27.2356 471.931 27.4096 471.931 27.5643C471.97 27.6803 471.989 27.7963 471.989 27.9123C471.989 28.6856 471.564 29.0723 470.713 29.0723C470.404 29.0723 470.017 29.0143 469.553 28.8983C468.896 29.401 468.026 29.981 466.943 30.6383C465.861 31.257 464.546 31.9916 462.999 32.8423C461.453 33.6543 460.041 34.3503 458.765 34.9303C457.489 35.5103 456.349 35.9936 455.343 36.3803C454.725 37.7723 453.99 40.073 453.139 43.2823C452.018 47.0716 450.684 50.8223 449.137 54.5343C447.861 57.5116 445.851 60.779 443.105 64.3363C442.719 64.839 442.371 65.0903 442.061 65.0903C441.907 65.0903 441.829 64.9743 441.829 64.7423C441.829 64.5876 441.926 64.259 442.119 63.7563C443.047 62.287 443.898 60.7016 444.671 59.0003C445.483 57.3376 446.237 55.559 446.933 53.6643C448.944 48.2896 450.452 42.7796 451.457 37.1343C451.612 36.2836 451.612 35.5103 451.457 34.8143C451.187 33.6543 450.471 32.707 449.311 31.9723C448.925 31.7016 448.731 31.4116 448.731 31.1023C448.731 30.793 448.983 30.6383 449.485 30.6383C449.601 30.6383 449.717 30.6383 449.833 30.6383C449.949 30.6383 450.104 30.6576 450.297 30.6963C450.8 30.8123 451.573 31.2763 452.617 32.0883C453.159 32.5136 453.642 32.9583 454.067 33.4223C454.531 33.8476 454.918 34.3116 455.227 34.8143C456.194 34.389 457.18 33.867 458.185 33.2483C459.229 32.591 460.312 31.8176 461.433 30.9283C463.792 29.1496 465.435 27.5256 466.363 26.0563C465.319 25.7856 463.637 25.6503 461.317 25.6503C459.577 25.6503 457.799 25.7276 455.981 25.8823C454.164 26.037 452.269 26.269 450.297 26.5783C445.928 27.197 442.255 28.125 439.277 29.3623C439.161 29.401 438.968 29.4976 438.697 29.6523C438.465 29.807 438.137 30.0196 437.711 30.2903C437.209 30.677 436.706 30.8703 436.203 30.8703C435.701 30.8703 435.198 30.5803 434.695 30.0003C434.077 29.343 433.516 28.6083 433.013 27.7963C432.511 26.9456 432.047 26.037 431.621 25.0703C431.389 24.5676 431.273 24.1423 431.273 23.7943C431.273 23.5236 431.37 23.3883 431.563 23.3883C431.873 23.3883 432.317 23.7363 432.897 24.4323C433.632 25.3216 434.483 25.979 435.449 26.4043C435.759 26.4816 436.145 26.4816 436.609 26.4043C441.365 25.4376 446.353 24.6836 451.573 24.1423C456.832 23.5623 462.4 23.195 468.277 23.0403C468.741 22.499 469.128 22.2283 469.437 22.2283C469.785 22.2283 470.095 22.4796 470.365 22.9823C470.675 23.485 470.945 24.0843 471.177 24.7803C471.409 25.4376 471.641 26.1916 471.873 27.0423Z" fill="black"/>
<path d="M170.852 83.3208C169.545 84.2088 168.163 84.9611 166.708 85.5778C166.338 85.7258 166.104 85.9725 166.005 86.3178C165.092 88.8338 164.106 91.4731 163.045 94.2358C161.984 96.9738 161.133 99.1691 160.492 100.822C160.369 101.118 160.159 101.365 159.863 101.562C159.592 101.759 159.32 101.858 159.049 101.858C158.728 101.858 158.494 101.685 158.346 101.34C158.198 100.995 158.124 100.563 158.124 100.045C158.124 99.7735 158.136 99.5885 158.161 99.4898C158.21 99.3911 158.297 99.2431 158.42 99.0458C158.691 98.5525 158.926 98.1085 159.123 97.7138C159.444 97.0725 159.74 96.4805 160.011 95.9378C160.282 95.3951 160.529 94.9141 160.751 94.4948C161.54 92.9901 162.194 91.7075 162.712 90.6468C163.23 89.5615 163.686 88.4638 164.081 87.3538C164.155 87.1565 164.192 87.0085 164.192 86.9098C164.192 86.6138 164.056 86.4658 163.785 86.4658C163.637 86.4658 163.501 86.4781 163.378 86.5028C163.255 86.5275 163.131 86.5398 163.008 86.5398C161.972 86.5398 161.133 86.3055 160.492 85.8368C159.851 85.3681 159.37 84.8378 159.049 84.2458C158.876 83.9745 158.79 83.7278 158.79 83.5058C158.79 83.3578 158.852 83.2838 158.975 83.2838C159.074 83.2838 159.246 83.4071 159.493 83.6538C160.036 84.1718 160.924 84.4308 162.157 84.4308C162.7 84.4308 163.464 84.3075 164.451 84.0608C164.846 83.9621 165.08 83.6908 165.154 83.2468C165.179 83.0741 165.191 82.8028 165.191 82.4328C165.191 81.6435 165.031 81.0145 164.71 80.5458C164.513 80.2498 164.229 80.0155 163.859 79.8428C163.514 79.6455 163.341 79.5098 163.341 79.4358C163.341 79.3371 163.415 79.2508 163.563 79.1768C163.736 79.1028 163.933 79.0658 164.155 79.0658C164.5 79.0658 164.846 79.1275 165.191 79.2508C165.931 79.4975 166.461 79.8058 166.782 80.1758C167.103 80.5458 167.263 81.0145 167.263 81.5818C167.263 81.7545 167.251 81.8901 167.226 81.9888L167.189 82.6548C167.189 82.9015 167.238 83.0125 167.337 82.9878L167.67 82.8028C167.867 82.6795 168.04 82.5685 168.188 82.4698C168.336 82.3465 168.41 82.2355 168.41 82.1368C168.41 82.0381 168.299 81.9025 168.077 81.7298C167.978 81.6558 167.83 81.5695 167.633 81.4708C167.46 81.3721 167.374 81.2858 167.374 81.2118C167.374 81.1131 167.485 81.0638 167.707 81.0638L169.039 81.1008C169.212 81.1008 169.421 81.0638 169.668 80.9898C169.939 80.9158 170.186 80.8788 170.408 80.8788C170.753 80.8788 171.025 80.9898 171.222 81.2118C171.444 81.4091 171.555 81.6681 171.555 81.9888C171.555 82.2355 171.493 82.4821 171.37 82.7288C171.247 82.9755 171.074 83.1728 170.852 83.3208ZM178.437 88.7228C177.327 88.7228 176.414 89.1051 175.699 89.8698C175.008 90.6345 174.663 91.7815 174.663 93.3108C174.663 94.7168 174.836 96.7025 175.181 99.2678L175.403 101.007C175.428 101.426 175.662 101.71 176.106 101.858C177.191 102.179 178.19 102.549 179.103 102.968C180.04 103.387 180.731 103.807 181.175 104.226C181.718 104.769 181.989 105.262 181.989 105.706C181.989 105.977 181.89 106.212 181.693 106.409C181.52 106.606 181.298 106.705 181.027 106.705C180.805 106.705 180.546 106.631 180.25 106.483C179.979 106.335 179.596 106.101 179.103 105.78C178.24 105.213 177.389 104.769 176.55 104.448C176.353 104.349 176.168 104.3 175.995 104.3C175.773 104.3 175.662 104.374 175.662 104.522V105.003C175.662 106.31 175.144 107.334 174.108 108.074C173.097 108.839 171.9 109.221 170.519 109.221C169.68 109.221 168.842 109.048 168.003 108.703C167.189 108.382 166.511 107.914 165.968 107.297C165.45 106.68 165.191 105.953 165.191 105.114C165.191 103.856 165.82 102.882 167.078 102.191C168.336 101.476 169.878 101.118 171.703 101.118C172.098 101.118 172.406 101.13 172.628 101.155H172.739C173.208 101.155 173.442 100.908 173.442 100.415C173.294 98.3428 173.22 96.8135 173.22 95.8268C173.22 94.1248 173.343 92.7805 173.59 91.7938C173.861 90.8071 174.404 89.9685 175.218 89.2778C176.032 88.5625 177.278 87.9458 178.955 87.4278C179.424 87.3045 179.658 87.0701 179.658 86.7248C179.658 86.4288 179.473 86.0711 179.103 85.6518C178.758 85.2325 178.4 84.8871 178.03 84.6158C177.882 84.4925 177.808 84.4061 177.808 84.3568C177.808 84.3075 177.894 84.2828 178.067 84.2828C178.264 84.2828 178.548 84.3321 178.918 84.4308C179.288 84.5048 179.609 84.6035 179.88 84.7268C180.719 85.0968 181.533 85.6641 182.322 86.4288C183.111 87.1688 183.506 87.8718 183.506 88.5378C183.506 88.9818 183.333 89.3641 182.988 89.6848C182.643 90.0055 182.248 90.1658 181.804 90.1658C181.533 90.1658 181.286 90.1165 181.064 90.0178C180.842 89.8945 180.571 89.7095 180.25 89.4628C179.905 89.2161 179.596 89.0311 179.325 88.9078C179.078 88.7845 178.782 88.7228 178.437 88.7228ZM170.001 107.297C171.259 107.297 172.135 107.026 172.628 106.483C173.121 105.916 173.405 105.139 173.479 104.152V104.041C173.479 103.622 173.257 103.375 172.813 103.301C171.95 103.178 171.197 103.116 170.556 103.116C169.446 103.116 168.509 103.289 167.744 103.634C166.979 103.979 166.597 104.485 166.597 105.151C166.597 105.842 166.93 106.372 167.596 106.742C168.287 107.112 169.088 107.297 170.001 107.297ZM224.058 96.3078C224.157 96.3078 224.206 96.4065 224.206 96.6038C224.206 96.9245 224.144 97.2451 224.021 97.5658C223.281 99.9831 222.368 101.957 221.283 103.486C220.198 104.991 219.088 106.076 217.953 106.742C216.818 107.383 215.745 107.704 214.734 107.704C213.279 107.704 212.193 107.26 211.478 106.372C210.787 105.484 210.442 104.411 210.442 103.153C210.442 102.536 210.553 101.032 210.775 98.6388C210.898 97.3315 210.96 96.4805 210.96 96.0858C210.96 95.0005 210.75 94.1248 210.331 93.4588C209.912 92.7681 209.209 92.4228 208.222 92.4228C207.26 92.4228 206.162 92.7435 204.929 93.3848C203.72 94.0261 202.598 94.8895 201.562 95.9748C200.6 96.9615 199.835 98.0715 199.268 99.3048C198.725 100.514 198.38 101.451 198.232 102.117C198.084 102.758 197.874 103.77 197.603 105.151C197.406 106.261 197.233 107.013 197.085 107.408C196.937 107.778 196.69 107.963 196.345 107.963C195.778 107.963 195.334 107.716 195.013 107.223C194.717 106.705 194.569 106.088 194.569 105.373C194.569 104.781 194.668 104.189 194.865 103.597C195.654 101.204 196.69 98.9101 197.973 96.7148C199.28 94.5195 201.081 91.7568 203.375 88.4268C204.954 86.1328 206.002 84.5788 206.52 83.7648C207.186 82.7535 207.519 81.9395 207.519 81.3228C207.519 80.9281 207.383 80.5828 207.112 80.2868C206.915 80.0401 206.73 79.8428 206.557 79.6948C206.384 79.5221 206.298 79.4111 206.298 79.3618C206.298 79.2138 206.471 79.1398 206.816 79.1398C207.26 79.1398 207.741 79.2878 208.259 79.5838C208.777 79.8798 209.209 80.2868 209.554 80.8048C209.899 81.3228 210.072 81.8778 210.072 82.4698C210.072 83.1851 209.875 83.8265 209.48 84.3938C209.11 84.9365 208.58 85.5285 207.889 86.1698C207.47 86.5891 207.26 86.7988 207.26 86.7988C206.15 87.9088 205.188 88.9571 204.374 89.9438C203.585 90.9058 202.832 91.9541 202.117 93.0888C202.092 93.4095 202.179 93.5698 202.376 93.5698C202.475 93.5698 202.586 93.5205 202.709 93.4218C204.658 92.0158 206.557 91.3128 208.407 91.3128C209.788 91.3128 210.948 91.7445 211.885 92.6078C212.822 93.4465 213.291 94.7291 213.291 96.4558C213.291 97.3191 213.192 98.3675 212.995 99.6008C212.97 99.7488 212.921 100.119 212.847 100.711C212.773 101.278 212.736 101.87 212.736 102.487C212.736 103.523 212.933 104.288 213.328 104.781C213.723 105.274 214.376 105.521 215.289 105.521C216.572 105.521 217.916 104.88 219.322 103.597C220.728 102.314 222.085 100.23 223.392 97.3438C223.441 97.2451 223.503 97.0971 223.577 96.8998C223.676 96.7025 223.762 96.5545 223.836 96.4558C223.91 96.3571 223.984 96.3078 224.058 96.3078ZM246.665 108.814C244.346 108.814 242.299 108.37 240.523 107.482C238.772 106.594 237.896 104.954 237.896 102.561C237.896 99.6501 239.462 97.1218 242.595 94.9758C242.842 94.8278 242.965 94.6551 242.965 94.4578C242.965 94.3098 242.866 94.1371 242.669 93.9398C241.954 93.2985 241.436 92.5708 241.115 91.7568C240.819 90.9428 240.671 89.9315 240.671 88.7228C240.671 87.4648 240.844 86.0465 241.189 84.4678C241.46 83.2345 241.596 82.1861 241.596 81.3228C241.596 80.7801 241.534 80.3361 241.411 79.9908C241.288 79.6455 241.078 79.3248 240.782 79.0288C240.609 78.8561 240.437 78.7081 240.264 78.5848C240.116 78.4368 240.042 78.3381 240.042 78.2888C240.042 78.1408 240.215 78.0668 240.56 78.0668C240.807 78.0668 241.103 78.1161 241.448 78.2148C241.793 78.2888 242.089 78.3875 242.336 78.5108C242.977 78.8315 243.421 79.2015 243.668 79.6208C243.939 80.0401 244.075 80.6075 244.075 81.3228C244.075 81.7421 244.026 82.1615 243.927 82.5808C243.828 82.9755 243.717 83.3578 243.594 83.7278C243.471 84.0731 243.384 84.3075 243.335 84.4308C243.31 84.5048 243.212 84.7761 243.039 85.2448C242.792 85.7875 242.607 86.3301 242.484 86.8728C242.361 87.3908 242.299 88.0445 242.299 88.8338C242.299 89.5491 242.41 90.2521 242.632 90.9428C242.879 91.6088 243.187 92.1638 243.557 92.6078C243.927 93.0271 244.309 93.2368 244.704 93.2368C244.975 93.2368 245.345 93.1505 245.814 92.9778C246.283 92.8051 246.751 92.6078 247.22 92.3858C248.207 91.9171 248.86 91.6828 249.181 91.6828C249.65 91.6828 250.106 91.8308 250.55 92.1268C251.019 92.3981 251.253 92.6818 251.253 92.9778C251.253 93.4218 251.08 93.7425 250.735 93.9398C250.39 94.1371 249.847 94.2975 249.107 94.4208C246.912 94.8155 244.79 95.5431 242.743 96.6038C240.696 97.6645 239.672 99.4528 239.672 101.969C239.672 103.252 240.141 104.325 241.078 105.188C242.015 106.051 243.421 106.483 245.296 106.483C245.937 106.483 246.579 106.434 247.22 106.335C247.861 106.236 248.244 106.175 248.367 106.15C249.502 105.953 250.303 105.854 250.772 105.854C252.153 105.854 252.844 106.261 252.844 107.075C252.844 107.642 252.289 108.074 251.179 108.37C250.069 108.666 248.564 108.814 246.665 108.814ZM281.852 83.3208C280.545 84.2088 279.163 84.9611 277.708 85.5778C277.338 85.7258 277.104 85.9725 277.005 86.3178C276.092 88.8338 275.106 91.4731 274.045 94.2358C272.984 96.9738 272.133 99.1691 271.492 100.822C271.369 101.118 271.159 101.365 270.863 101.562C270.592 101.759 270.32 101.858 270.049 101.858C269.728 101.858 269.494 101.685 269.346 101.34C269.198 100.995 269.124 100.563 269.124 100.045C269.124 99.7735 269.136 99.5885 269.161 99.4898C269.21 99.3911 269.297 99.2431 269.42 99.0458C269.691 98.5525 269.926 98.1085 270.123 97.7138C270.444 97.0725 270.74 96.4805 271.011 95.9378C271.282 95.3951 271.529 94.9141 271.751 94.4948C272.54 92.9901 273.194 91.7075 273.712 90.6468C274.23 89.5615 274.686 88.4638 275.081 87.3538C275.155 87.1565 275.192 87.0085 275.192 86.9098C275.192 86.6138 275.056 86.4658 274.785 86.4658C274.637 86.4658 274.501 86.4781 274.378 86.5028C274.255 86.5275 274.131 86.5398 274.008 86.5398C272.972 86.5398 272.133 86.3055 271.492 85.8368C270.851 85.3681 270.37 84.8378 270.049 84.2458C269.876 83.9745 269.79 83.7278 269.79 83.5058C269.79 83.3578 269.852 83.2838 269.975 83.2838C270.074 83.2838 270.246 83.4071 270.493 83.6538C271.036 84.1718 271.924 84.4308 273.157 84.4308C273.7 84.4308 274.464 84.3075 275.451 84.0608C275.846 83.9621 276.08 83.6908 276.154 83.2468C276.179 83.0741 276.191 82.8028 276.191 82.4328C276.191 81.6435 276.031 81.0145 275.71 80.5458C275.513 80.2498 275.229 80.0155 274.859 79.8428C274.514 79.6455 274.341 79.5098 274.341 79.4358C274.341 79.3371 274.415 79.2508 274.563 79.1768C274.736 79.1028 274.933 79.0658 275.155 79.0658C275.5 79.0658 275.846 79.1275 276.191 79.2508C276.931 79.4975 277.461 79.8058 277.782 80.1758C278.103 80.5458 278.263 81.0145 278.263 81.5818C278.263 81.7545 278.251 81.8901 278.226 81.9888L278.189 82.6548C278.189 82.9015 278.238 83.0125 278.337 82.9878L278.67 82.8028C278.867 82.6795 279.04 82.5685 279.188 82.4698C279.336 82.3465 279.41 82.2355 279.41 82.1368C279.41 82.0381 279.299 81.9025 279.077 81.7298C278.978 81.6558 278.83 81.5695 278.633 81.4708C278.46 81.3721 278.374 81.2858 278.374 81.2118C278.374 81.1131 278.485 81.0638 278.707 81.0638L280.039 81.1008C280.212 81.1008 280.421 81.0638 280.668 80.9898C280.939 80.9158 281.186 80.8788 281.408 80.8788C281.753 80.8788 282.025 80.9898 282.222 81.2118C282.444 81.4091 282.555 81.6681 282.555 81.9888C282.555 82.2355 282.493 82.4821 282.37 82.7288C282.247 82.9755 282.074 83.1728 281.852 83.3208ZM289.437 88.7228C288.327 88.7228 287.414 89.1051 286.699 89.8698C286.008 90.6345 285.663 91.7815 285.663 93.3108C285.663 94.7168 285.836 96.7025 286.181 99.2678L286.403 101.007C286.428 101.426 286.662 101.71 287.106 101.858C288.191 102.179 289.19 102.549 290.103 102.968C291.04 103.387 291.731 103.807 292.175 104.226C292.718 104.769 292.989 105.262 292.989 105.706C292.989 105.977 292.89 106.212 292.693 106.409C292.52 106.606 292.298 106.705 292.027 106.705C291.805 106.705 291.546 106.631 291.25 106.483C290.979 106.335 290.596 106.101 290.103 105.78C289.24 105.213 288.389 104.769 287.55 104.448C287.353 104.349 287.168 104.3 286.995 104.3C286.773 104.3 286.662 104.374 286.662 104.522V105.003C286.662 106.31 286.144 107.334 285.108 108.074C284.097 108.839 282.9 109.221 281.519 109.221C280.68 109.221 279.842 109.048 279.003 108.703C278.189 108.382 277.511 107.914 276.968 107.297C276.45 106.68 276.191 105.953 276.191 105.114C276.191 103.856 276.82 102.882 278.078 102.191C279.336 101.476 280.878 101.118 282.703 101.118C283.098 101.118 283.406 101.13 283.628 101.155H283.739C284.208 101.155 284.442 100.908 284.442 100.415C284.294 98.3428 284.22 96.8135 284.22 95.8268C284.22 94.1248 284.343 92.7805 284.59 91.7938C284.861 90.8071 285.404 89.9685 286.218 89.2778C287.032 88.5625 288.278 87.9458 289.955 87.4278C290.424 87.3045 290.658 87.0701 290.658 86.7248C290.658 86.4288 290.473 86.0711 290.103 85.6518C289.758 85.2325 289.4 84.8871 289.03 84.6158C288.882 84.4925 288.808 84.4061 288.808 84.3568C288.808 84.3075 288.894 84.2828 289.067 84.2828C289.264 84.2828 289.548 84.3321 289.918 84.4308C290.288 84.5048 290.609 84.6035 290.88 84.7268C291.719 85.0968 292.533 85.6641 293.322 86.4288C294.111 87.1688 294.506 87.8718 294.506 88.5378C294.506 88.9818 294.333 89.3641 293.988 89.6848C293.643 90.0055 293.248 90.1658 292.804 90.1658C292.533 90.1658 292.286 90.1165 292.064 90.0178C291.842 89.8945 291.571 89.7095 291.25 89.4628C290.905 89.2161 290.596 89.0311 290.325 88.9078C290.078 88.7845 289.782 88.7228 289.437 88.7228ZM281.001 107.297C282.259 107.297 283.135 107.026 283.628 106.483C284.121 105.916 284.405 105.139 284.479 104.152V104.041C284.479 103.622 284.257 103.375 283.813 103.301C282.95 103.178 282.197 103.116 281.556 103.116C280.446 103.116 279.509 103.289 278.744 103.634C277.979 103.979 277.597 104.485 277.597 105.151C277.597 105.842 277.93 106.372 278.596 106.742C279.287 107.112 280.088 107.297 281.001 107.297ZM320.85 109.739C320.332 109.739 319.937 109.468 319.666 108.925C319.395 108.407 319.074 107.581 318.704 106.446C317.939 104.053 317.298 102.327 316.78 101.266C316.262 100.181 315.584 98.9841 314.745 97.6768C314.622 97.4795 314.35 97.0601 313.931 96.4188C313.512 95.7775 313.228 95.2718 313.08 94.9018C312.932 94.5071 312.858 94.1495 312.858 93.8288C312.858 93.4095 312.969 92.9408 313.191 92.4228C313.438 91.9048 313.845 91.2018 314.412 90.3138C316.583 86.8111 318.063 84.0608 318.852 82.0628C319.099 81.4215 319.222 80.9035 319.222 80.5088C319.222 80.0895 319.099 79.7565 318.852 79.5098C318.704 79.3618 318.482 79.1891 318.186 78.9918C317.915 78.7945 317.779 78.6465 317.779 78.5478C317.779 78.3998 317.939 78.3258 318.26 78.3258C318.605 78.3258 319.074 78.4368 319.666 78.6588C320.258 78.8561 320.788 79.1275 321.257 79.4728C321.8 79.8675 322.071 80.3608 322.071 80.9528C322.071 81.2488 321.972 81.6558 321.775 82.1738C321.43 83.0125 321.047 83.7771 320.628 84.4678C320.233 85.1585 319.617 86.0095 318.778 87.0208C316.977 89.2161 315.534 91.0908 314.449 92.6448C314.178 93.0148 314.042 93.4095 314.042 93.8288C314.042 94.2235 314.215 94.6181 314.56 95.0128C316.237 96.8628 317.878 99.0705 319.481 101.636C321.109 104.177 321.923 106.397 321.923 108.296C321.923 108.715 321.837 109.061 321.664 109.332C321.491 109.603 321.22 109.739 320.85 109.739ZM363.733 87.6868C364.128 87.6868 364.436 87.5141 364.658 87.1688L364.917 86.7988C364.991 86.6755 365.09 86.5398 365.213 86.3918C365.336 86.2191 365.435 86.0958 365.509 86.0218C365.583 85.9231 365.669 85.8738 365.768 85.8738C365.941 85.8738 366.311 86.1205 366.878 86.6138C367.47 87.1071 367.926 87.5511 368.247 87.9458C368.346 88.0691 368.395 88.2048 368.395 88.3528C368.395 88.5255 368.284 88.6858 368.062 88.8338L367.692 89.0188C367.248 89.1668 367.026 89.4505 367.026 89.8698V100.822C367.075 103.511 367.162 106.224 367.285 108.962V109.11C367.285 109.455 367.149 109.714 366.878 109.887C366.607 110.084 366.298 110.245 365.953 110.368C365.608 110.516 365.299 110.59 365.028 110.59H364.954C364.855 110.565 364.757 110.479 364.658 110.331C364.559 110.183 364.51 110.023 364.51 109.85C364.559 109.653 364.584 109.505 364.584 109.406C364.584 109.332 364.609 109.098 364.658 108.703V108.518C364.658 108.271 364.584 108.086 364.436 107.963C364.313 107.815 364.128 107.741 363.881 107.741H348.415C347.897 107.741 347.638 107.988 347.638 108.481C347.663 108.678 347.675 108.913 347.675 109.184L347.712 109.517C347.712 109.764 347.626 109.973 347.453 110.146C346.984 110.565 346.417 110.775 345.751 110.775C345.554 110.775 345.369 110.701 345.196 110.553C345.023 110.405 344.937 110.232 344.937 110.035C345.036 108.58 345.122 107.174 345.196 105.817C345.27 104.436 345.319 102.635 345.344 100.415V93.8288C345.344 91.4361 345.233 89.2778 345.011 87.3538V87.2058C345.011 86.8111 345.159 86.6138 345.455 86.6138C345.578 86.6138 345.714 86.6508 345.862 86.7248L347.416 87.4648C347.737 87.6128 348.057 87.6868 348.378 87.6868H352.189C352.658 87.6868 352.941 87.4525 353.04 86.9838C353.41 84.9858 353.681 83.3331 353.854 82.0258V81.8778C353.854 81.4338 353.62 81.2118 353.151 81.2118H346.787C345.282 81.2365 343.654 81.3721 341.903 81.6188H341.681C341.336 81.6188 341.089 81.4585 340.941 81.1378L340.756 80.8048C340.682 80.6568 340.645 80.5088 340.645 80.3608C340.645 80.2128 340.707 80.1018 340.83 80.0278C340.953 79.9291 341.126 79.8921 341.348 79.9168C342.187 79.9908 343.457 80.0525 345.159 80.1018H365.842C366.261 80.1018 366.582 79.9415 366.804 79.6208L367.285 78.9548C367.359 78.8561 367.482 78.6958 367.655 78.4738C367.828 78.2271 367.963 78.0545 368.062 77.9558C368.185 77.8325 368.296 77.7708 368.395 77.7708C368.592 77.7708 369.061 78.0668 369.801 78.6588C370.566 79.2508 371.121 79.7565 371.466 80.1758C371.589 80.3485 371.651 80.4965 371.651 80.6198C371.651 80.7678 371.577 80.9035 371.429 81.0268C371.232 81.1501 370.985 81.2118 370.689 81.2118H357.554C357.11 81.2118 356.802 81.4091 356.629 81.8038C355.741 83.9498 355.001 85.6025 354.409 86.7618C354.335 86.9098 354.298 87.0455 354.298 87.1688C354.298 87.5141 354.52 87.6868 354.964 87.6868H363.733ZM363.881 96.7518C364.128 96.7518 364.313 96.6901 364.436 96.5668C364.584 96.4188 364.658 96.2215 364.658 95.9748V89.4998C364.658 89.2531 364.584 89.0681 364.436 88.9448C364.313 88.7968 364.128 88.7228 363.881 88.7228H348.415C348.168 88.7228 347.971 88.7968 347.823 88.9448C347.7 89.0681 347.638 89.2531 347.638 89.4998V95.9748C347.638 96.2215 347.7 96.4188 347.823 96.5668C347.971 96.6901 348.168 96.7518 348.415 96.7518H363.881ZM348.415 97.8248C348.168 97.8248 347.971 97.8988 347.823 98.0468C347.7 98.1701 347.638 98.3551 347.638 98.6018V105.891C347.638 106.138 347.7 106.335 347.823 106.483C347.971 106.606 348.168 106.668 348.415 106.668H363.881C364.128 106.668 364.313 106.606 364.436 106.483C364.584 106.335 364.658 106.138 364.658 105.891V98.6018C364.658 98.3551 364.584 98.1701 364.436 98.0468C364.313 97.8988 364.128 97.8248 363.881 97.8248H348.415ZM386.932 87.9088C387.327 87.9088 387.635 87.7361 387.857 87.3908L388.19 86.8728C388.264 86.7495 388.363 86.6015 388.486 86.4288C388.634 86.2315 388.745 86.0835 388.819 85.9848C388.918 85.8861 389.016 85.8368 389.115 85.8368C389.312 85.8368 389.707 86.0958 390.299 86.6138C390.891 87.1318 391.323 87.5881 391.594 87.9828C391.693 88.0815 391.742 88.2171 391.742 88.3898C391.742 88.5378 391.68 88.6735 391.557 88.7968C391.384 88.9201 391.162 88.9818 390.891 88.9818H386.488C386.241 88.9818 386.044 89.0558 385.896 89.2038C385.773 89.3271 385.711 89.5121 385.711 89.7588V90.8688C385.711 91.3128 385.921 91.6211 386.34 91.7938C387.943 92.5338 389.127 93.3355 389.892 94.1988C390.657 95.0621 391.039 95.8638 391.039 96.6038C391.039 96.9985 390.94 97.3068 390.743 97.5288C390.57 97.7508 390.336 97.8618 390.04 97.8618C389.941 97.8618 389.793 97.8371 389.596 97.7878C389.325 97.6645 389.103 97.4055 388.93 97.0108C388.486 95.9995 387.734 94.8525 386.673 93.5698C386.5 93.3725 386.328 93.2738 386.155 93.2738C385.859 93.2738 385.711 93.4958 385.711 93.9398V101.192C385.76 103.881 385.847 106.594 385.97 109.332V109.48C385.97 109.825 385.847 110.084 385.6 110.257C385.057 110.652 384.453 110.849 383.787 110.849C383.614 110.849 383.442 110.763 383.269 110.59C383.121 110.442 383.047 110.282 383.047 110.109C383.146 108.654 383.232 107.248 383.306 105.891C383.38 104.51 383.429 102.709 383.454 100.489V96.3818C383.454 95.9378 383.331 95.7158 383.084 95.7158C382.887 95.7158 382.714 95.8638 382.566 96.1598C381.037 98.8731 379.248 101.254 377.201 103.301C377.004 103.474 376.843 103.585 376.72 103.634C376.621 103.683 376.523 103.659 376.424 103.56C376.375 103.511 376.35 103.437 376.35 103.338C376.35 103.19 376.436 102.993 376.609 102.746C377.916 100.945 379.088 98.9348 380.124 96.7148C381.16 94.4948 381.999 92.2008 382.64 89.8328C382.665 89.7588 382.677 89.6725 382.677 89.5738C382.677 89.1791 382.443 88.9818 381.974 88.9818H380.938C380.05 89.0065 379.162 89.1175 378.274 89.3148C378.2 89.3395 378.101 89.3518 377.978 89.3518C377.682 89.3518 377.448 89.1915 377.275 88.8708L377.127 88.6118C377.053 88.4638 377.016 88.3281 377.016 88.2048C377.016 88.0568 377.078 87.9335 377.201 87.8348C377.349 87.7361 377.534 87.6991 377.756 87.7238C378.521 87.7978 379.68 87.8595 381.234 87.9088H382.677C382.924 87.9088 383.109 87.8471 383.232 87.7238C383.38 87.5758 383.454 87.3785 383.454 87.1318V82.3588C383.454 82.0875 383.368 81.8901 383.195 81.7668C383.047 81.6435 382.85 81.6065 382.603 81.6558C380.753 82.0505 379.174 82.3218 377.867 82.4698H377.608C377.312 82.4698 377.139 82.3958 377.09 82.2478V82.1738C377.09 82.0258 377.312 81.8778 377.756 81.7298C379.211 81.3105 380.691 80.8048 382.196 80.2128C384.49 79.3495 386.377 78.3135 387.857 77.1048C388.03 76.9568 388.202 76.8828 388.375 76.8828C388.572 76.8828 388.77 76.9815 388.967 77.1788C390.348 78.4861 391.039 79.2878 391.039 79.5838C391.039 79.7565 390.866 79.8181 390.521 79.7688L390.151 79.7318H389.929C389.682 79.7318 389.423 79.7811 389.152 79.8798C388.955 79.9538 388.572 80.0895 388.005 80.2868C387.438 80.4595 386.895 80.6075 386.377 80.7308C385.933 80.8788 385.711 81.1748 385.711 81.6188V87.1318C385.711 87.3785 385.773 87.5758 385.896 87.7238C386.044 87.8471 386.241 87.9088 386.488 87.9088H386.932ZM401.991 100.785C401.991 100.538 401.917 100.353 401.769 100.23C401.621 100.107 401.411 100.07 401.14 100.119L390.41 102.302C390.336 102.327 390.237 102.339 390.114 102.339C389.843 102.339 389.633 102.203 389.485 101.932C389.46 101.883 389.448 101.821 389.448 101.747C389.448 101.624 389.51 101.513 389.633 101.414C389.756 101.315 389.917 101.254 390.114 101.229L401.288 98.9718C401.51 98.9471 401.683 98.8608 401.806 98.7128C401.929 98.5401 401.991 98.3428 401.991 98.1208V85.0598C401.991 82.5931 401.88 80.3855 401.658 78.4368V78.2888C401.658 78.1161 401.707 77.9805 401.806 77.8818C401.905 77.7585 402.04 77.6968 402.213 77.6968C402.287 77.6968 402.398 77.7215 402.546 77.7708C403.533 78.0915 404.223 78.3505 404.618 78.5478C405.013 78.7451 405.21 78.9178 405.21 79.0658C405.21 79.1891 405.099 79.3125 404.877 79.4358L404.766 79.5098C404.421 79.7318 404.248 80.0401 404.248 80.4348V97.4918C404.248 97.7385 404.322 97.9235 404.47 98.0468C404.618 98.1701 404.828 98.2071 405.099 98.1578L405.321 98.1208C405.716 98.0468 405.987 97.8248 406.135 97.4548L406.468 96.7148C406.542 96.5668 406.628 96.3695 406.727 96.1228C406.85 95.8761 406.949 95.7035 407.023 95.6048C407.122 95.4815 407.22 95.4198 407.319 95.4198C407.467 95.4198 407.775 95.5678 408.244 95.8638C408.737 96.1598 409.181 96.4805 409.576 96.8258C409.971 97.1711 410.168 97.4301 410.168 97.6028C410.168 97.8001 410.094 97.9728 409.946 98.1208C409.798 98.2688 409.625 98.3675 409.428 98.4168L404.951 99.3418C404.482 99.4651 404.248 99.7488 404.248 100.193V102.968C404.322 105.731 404.396 107.79 404.47 109.147V109.369C404.47 109.64 404.371 109.875 404.174 110.072C403.977 110.269 403.705 110.43 403.36 110.553C403.039 110.701 402.731 110.775 402.435 110.775C402.213 110.775 402.028 110.701 401.88 110.553C401.757 110.405 401.695 110.232 401.695 110.035C401.843 107.889 401.942 105.731 401.991 103.56V100.785ZM393.444 81.7298C393.049 81.4091 392.901 81.1871 393 81.0638C393.074 80.9898 393.173 80.9528 393.296 80.9528C393.345 80.9528 393.518 80.9775 393.814 81.0268C395.738 81.5695 397.156 82.2725 398.069 83.1358C398.982 83.9991 399.438 84.8378 399.438 85.6518C399.438 86.0711 399.327 86.4041 399.105 86.6508C398.908 86.8728 398.636 86.9838 398.291 86.9838C398.118 86.9838 397.995 86.9715 397.921 86.9468C397.724 86.8975 397.576 86.8235 397.477 86.7248C397.378 86.6261 397.292 86.4781 397.218 86.2808C396.897 85.5655 396.379 84.7885 395.664 83.9498C394.973 83.1111 394.233 82.3711 393.444 81.7298ZM392.667 90.4618C392.297 90.1905 392.112 89.9808 392.112 89.8328C392.112 89.7341 392.211 89.6848 392.408 89.6848C392.63 89.6848 392.803 89.7095 392.926 89.7588C394.924 90.2521 396.404 90.9428 397.366 91.8308C398.328 92.6941 398.809 93.5205 398.809 94.3098C398.809 94.7045 398.71 95.0251 398.513 95.2718C398.316 95.4938 398.044 95.6048 397.699 95.6048C397.526 95.6048 397.403 95.5925 397.329 95.5678C397.033 95.4938 396.799 95.2841 396.626 94.9388C396.256 94.1988 395.701 93.4218 394.961 92.6078C394.221 91.7938 393.456 91.0785 392.667 90.4618ZM437.992 94.0878C438.387 94.0878 438.695 93.9275 438.917 93.6068L439.176 93.2738C439.25 93.1751 439.336 93.0518 439.435 92.9038C439.558 92.7558 439.657 92.6448 439.731 92.5708C439.83 92.4968 439.928 92.4598 440.027 92.4598C440.2 92.4598 440.557 92.6818 441.1 93.1258C441.667 93.5698 442.111 93.9891 442.432 94.3838C442.531 94.5071 442.58 94.6428 442.58 94.7908C442.58 94.9635 442.469 95.1238 442.247 95.2718C442.173 95.3211 442.099 95.3581 442.025 95.3828C441.951 95.4075 441.889 95.4321 441.84 95.4568C441.396 95.6048 441.174 95.8885 441.174 96.3078V97.8248C441.174 98.0715 441.211 98.2688 441.285 98.4168C441.384 98.5401 441.495 98.6018 441.618 98.6018C441.914 98.6018 442.173 98.4291 442.395 98.0838L442.765 97.4918C442.864 97.3685 442.975 97.2081 443.098 97.0108C443.246 96.7888 443.369 96.6285 443.468 96.5298C443.567 96.4311 443.665 96.3818 443.764 96.3818C443.937 96.3818 444.344 96.6655 444.985 97.2328C445.626 97.7755 446.083 98.2565 446.354 98.6758C446.477 98.8485 446.539 98.9965 446.539 99.1198C446.539 99.2678 446.465 99.4035 446.317 99.5268C446.144 99.6501 445.922 99.7118 445.651 99.7118H441.951C441.704 99.7118 441.507 99.7858 441.359 99.9338C441.236 100.057 441.174 100.242 441.174 100.489V101.636L441.248 103.079C441.248 103.498 441.273 104.029 441.322 104.67C441.322 104.892 441.297 105.077 441.248 105.225C441.223 105.373 441.137 105.509 440.989 105.632C440.767 105.805 440.496 105.953 440.175 106.076C439.854 106.199 439.558 106.261 439.287 106.261C439.139 106.261 439.016 106.175 438.917 106.002C438.843 105.854 438.806 105.731 438.806 105.632C438.806 105.509 438.831 105.373 438.88 105.225C438.929 104.954 438.954 104.732 438.954 104.559C438.954 104.46 438.88 104.386 438.732 104.337C438.609 104.263 438.424 104.226 438.177 104.226H431.887C431.64 104.226 431.443 104.3 431.295 104.448C431.172 104.571 431.11 104.756 431.11 105.003V107.334C431.11 108.37 430.888 109.159 430.444 109.702C430.025 110.245 429.137 110.615 427.78 110.812L427.558 110.849C427.237 110.849 426.991 110.639 426.818 110.22C426.67 109.801 426.411 109.48 426.041 109.258C425.474 108.888 424.536 108.604 423.229 108.407C422.736 108.333 422.489 108.197 422.489 108C422.489 107.803 422.76 107.729 423.303 107.778C425.597 107.975 427.089 108.074 427.78 108.074C428.15 108.074 428.397 108.012 428.52 107.889C428.668 107.741 428.742 107.507 428.742 107.186V105.003C428.742 104.756 428.668 104.571 428.52 104.448C428.397 104.3 428.212 104.226 427.965 104.226H423.932C422.427 104.251 420.799 104.386 419.048 104.633H418.826C418.481 104.633 418.234 104.473 418.086 104.152L417.938 103.893C417.864 103.745 417.827 103.597 417.827 103.449C417.827 103.301 417.889 103.19 418.012 103.116C418.135 103.017 418.308 102.98 418.53 103.005C419.369 103.079 420.639 103.141 422.341 103.19H427.965C428.212 103.19 428.397 103.128 428.52 103.005C428.668 102.857 428.742 102.66 428.742 102.413V100.489C428.742 100.242 428.668 100.057 428.52 99.9338C428.397 99.7858 428.212 99.7118 427.965 99.7118H419.973C418.468 99.7365 416.84 99.8721 415.089 100.119H414.867C414.522 100.119 414.275 99.9585 414.127 99.6378L413.979 99.3048C413.905 99.1568 413.868 99.0088 413.868 98.8608C413.868 98.5155 414.102 98.3675 414.571 98.4168C415.41 98.4908 416.692 98.5525 418.419 98.6018H427.965C428.212 98.6018 428.397 98.5401 428.52 98.4168C428.668 98.2688 428.742 98.0715 428.742 97.8248V95.9748C428.742 95.7281 428.668 95.5431 428.52 95.4198C428.397 95.2718 428.212 95.1978 427.965 95.1978H424.154C422.649 95.2225 421.021 95.3581 419.27 95.6048H419.048C418.703 95.6048 418.456 95.4445 418.308 95.1238L418.123 94.7908C418.049 94.6428 418.012 94.5071 418.012 94.3838C418.012 94.0138 418.259 93.8535 418.752 93.9028C419.591 93.9768 420.861 94.0385 422.563 94.0878H427.965C428.212 94.0878 428.397 94.0261 428.52 93.9028C428.668 93.7548 428.742 93.5575 428.742 93.3108V91.4608C428.742 91.2141 428.668 91.0291 428.52 90.9058C428.397 90.7578 428.212 90.6838 427.965 90.6838H421.823C421.576 90.6838 421.379 90.7578 421.231 90.9058C421.108 91.0291 421.046 91.2141 421.046 91.4608V91.8678C421.046 91.9911 420.824 92.1515 420.38 92.3488C419.961 92.5215 419.541 92.6078 419.122 92.6078C418.974 92.6078 418.851 92.5338 418.752 92.3858C418.653 92.2378 418.604 92.0651 418.604 91.8678C418.653 91.5718 418.715 90.8318 418.789 89.6478V88.1308C418.789 86.7495 418.74 85.5655 418.641 84.5788V84.4308C418.641 84.0361 418.789 83.8388 419.085 83.8388C419.208 83.8388 419.344 83.8758 419.492 83.9498L420.861 84.6158C421.132 84.7638 421.453 84.8378 421.823 84.8378H427.965C428.212 84.8378 428.397 84.7761 428.52 84.6528C428.668 84.5048 428.742 84.3075 428.742 84.0608V82.6918C428.742 82.4451 428.668 82.2601 428.52 82.1368C428.397 81.9888 428.212 81.9148 427.965 81.9148H420.047C418.542 81.9395 416.914 82.0751 415.163 82.3218H414.941C414.596 82.3218 414.349 82.1615 414.201 81.8408L414.016 81.5078C413.942 81.3598 413.905 81.2241 413.905 81.1008C413.905 80.7308 414.152 80.5705 414.645 80.6198C415.484 80.6938 416.754 80.7555 418.456 80.8048H427.965C428.483 80.8048 428.742 80.5458 428.742 80.0278L428.631 77.7708V77.6228C428.631 77.2281 428.804 77.0308 429.149 77.0308C429.198 77.0308 429.322 77.0555 429.519 77.1048C431.196 77.6475 432.035 78.0791 432.035 78.3998C432.035 78.5231 431.936 78.6465 431.739 78.7698L431.628 78.8438C431.283 79.0658 431.11 79.3741 431.11 79.7688V80.0278C431.11 80.2745 431.172 80.4718 431.295 80.6198C431.443 80.7431 431.64 80.8048 431.887 80.8048H440.508C440.903 80.8048 441.211 80.6445 441.433 80.3238L441.914 79.6948C442.013 79.5715 442.136 79.4111 442.284 79.2138C442.457 78.9918 442.592 78.8315 442.691 78.7328C442.814 78.6095 442.925 78.5478 443.024 78.5478C443.221 78.5478 443.678 78.8438 444.393 79.4358C445.133 80.0031 445.651 80.4965 445.947 80.9158C446.07 81.0885 446.132 81.2241 446.132 81.3228C446.132 81.4708 446.07 81.6065 445.947 81.7298C445.774 81.8531 445.552 81.9148 445.281 81.9148H431.887C431.64 81.9148 431.443 81.9888 431.295 82.1368C431.172 82.2601 431.11 82.4451 431.11 82.6918V84.0608C431.11 84.3075 431.172 84.5048 431.295 84.6528C431.443 84.7761 431.64 84.8378 431.887 84.8378H437.844C438.263 84.8378 438.584 84.6898 438.806 84.3938L439.028 84.1348C439.102 84.0608 439.225 83.9251 439.398 83.7278C439.571 83.5058 439.731 83.3948 439.879 83.3948C440.052 83.3948 440.422 83.5921 440.989 83.9868C441.581 84.3815 442.037 84.7515 442.358 85.0968C442.457 85.2201 442.506 85.3558 442.506 85.5038C442.506 85.6765 442.395 85.8368 442.173 85.9848L441.803 86.1698C441.359 86.3178 441.137 86.6015 441.137 87.0208V87.9828L441.248 90.4618V90.6468C441.248 90.9921 441.137 91.2388 440.915 91.3868C440.693 91.5595 440.422 91.7075 440.101 91.8308C439.78 91.9295 439.484 91.9788 439.213 91.9788C438.942 91.9788 438.806 91.7568 438.806 91.3128C438.806 90.8935 438.547 90.6838 438.029 90.6838H431.887C431.64 90.6838 431.443 90.7578 431.295 90.9058C431.172 91.0291 431.11 91.2141 431.11 91.4608V93.3108C431.11 93.5575 431.172 93.7548 431.295 93.9028C431.443 94.0261 431.64 94.0878 431.887 94.0878H437.992ZM421.823 85.9108C421.576 85.9108 421.379 85.9848 421.231 86.1328C421.108 86.2561 421.046 86.4411 421.046 86.6878V88.8338C421.046 89.0805 421.108 89.2778 421.231 89.4258C421.379 89.5491 421.576 89.6108 421.823 89.6108H427.965C428.212 89.6108 428.397 89.5491 428.52 89.4258C428.668 89.2778 428.742 89.0805 428.742 88.8338V86.6878C428.742 86.4411 428.668 86.2561 428.52 86.1328C428.397 85.9848 428.212 85.9108 427.965 85.9108H421.823ZM438.029 89.6108C438.276 89.6108 438.461 89.5491 438.584 89.4258C438.732 89.2778 438.806 89.0805 438.806 88.8338V86.6878C438.806 86.4411 438.732 86.2561 438.584 86.1328C438.461 85.9848 438.276 85.9108 438.029 85.9108H431.887C431.64 85.9108 431.443 85.9848 431.295 86.1328C431.172 86.2561 431.11 86.4411 431.11 86.6878V88.8338C431.11 89.0805 431.172 89.2778 431.295 89.4258C431.443 89.5491 431.64 89.6108 431.887 89.6108H438.029ZM438.954 95.9748C438.954 95.7281 438.88 95.5431 438.732 95.4198C438.609 95.2718 438.424 95.1978 438.177 95.1978H431.887C431.64 95.1978 431.443 95.2718 431.295 95.4198C431.172 95.5431 431.11 95.7281 431.11 95.9748V97.8248C431.11 98.0715 431.172 98.2688 431.295 98.4168C431.443 98.5401 431.64 98.6018 431.887 98.6018H438.177C438.424 98.6018 438.609 98.5401 438.732 98.4168C438.88 98.2688 438.954 98.0715 438.954 97.8248V95.9748ZM431.11 102.413C431.11 102.66 431.172 102.857 431.295 103.005C431.443 103.128 431.64 103.19 431.887 103.19H438.177C438.424 103.19 438.609 103.128 438.732 103.005C438.88 102.857 438.954 102.66 438.954 102.413V100.489C438.954 100.242 438.88 100.057 438.732 99.9338C438.609 99.7858 438.424 99.7118 438.177 99.7118H431.887C431.64 99.7118 431.443 99.7858 431.295 99.9338C431.172 100.057 431.11 100.242 431.11 100.489V102.413ZM475.621 82.9878C476.065 82.9878 476.373 82.8028 476.546 82.4328L476.768 82.0628C476.817 81.9888 476.891 81.8531 476.99 81.6558C477.113 81.4585 477.212 81.3228 477.286 81.2488C477.385 81.1501 477.483 81.1008 477.582 81.1008C477.755 81.1008 478.162 81.3598 478.803 81.8778C479.444 82.3711 479.938 82.8275 480.283 83.2468C480.382 83.3455 480.431 83.4688 480.431 83.6168C480.431 83.8141 480.332 83.9745 480.135 84.0978C479.987 84.1965 479.839 84.2581 479.691 84.2828C479.198 84.4061 478.951 84.6775 478.951 85.0968V99.8228C478.951 100.341 479.025 100.6 479.173 100.6C479.346 100.6 479.531 100.427 479.728 100.082L480.061 99.4898C480.135 99.3665 480.234 99.2061 480.357 99.0088C480.505 98.7868 480.628 98.6265 480.727 98.5278C480.826 98.4045 480.924 98.3428 481.023 98.3428C481.196 98.3428 481.59 98.6265 482.207 99.1938C482.824 99.7365 483.28 100.23 483.576 100.674C483.675 100.871 483.724 101.019 483.724 101.118C483.724 101.266 483.65 101.402 483.502 101.525C483.329 101.648 483.12 101.71 482.873 101.71H456.751C455.246 101.735 453.618 101.87 451.867 102.117H451.645C451.3 102.117 451.053 101.957 450.905 101.636L450.757 101.303C450.683 101.155 450.646 101.007 450.646 100.859C450.646 100.538 450.88 100.403 451.349 100.452C451.842 100.501 452.558 100.551 453.495 100.6H454.235C454.482 100.6 454.667 100.538 454.79 100.415C454.938 100.267 455.012 100.07 455.012 99.8228V89.2038C455.012 86.7865 454.901 84.6158 454.679 82.6918V82.5438C454.679 82.1738 454.839 81.9888 455.16 81.9888C455.308 81.9888 455.431 82.0135 455.53 82.0628L457.232 82.8028C457.503 82.9261 457.812 82.9878 458.157 82.9878H461.339C461.857 82.9878 462.116 82.7288 462.116 82.2108C462.067 80.6321 461.993 79.2631 461.894 78.1038V77.9558C461.894 77.5611 462.067 77.3638 462.412 77.3638C462.461 77.3638 462.585 77.3885 462.782 77.4378C464.336 77.9558 465.113 78.3505 465.113 78.6218C465.113 78.7205 465.027 78.8191 464.854 78.9178C464.509 79.1398 464.336 79.4481 464.336 79.8428V82.2108C464.336 82.4575 464.398 82.6548 464.521 82.8028C464.669 82.9261 464.866 82.9878 465.113 82.9878H468.554C469.072 82.9878 469.331 82.7288 469.331 82.2108C469.282 80.6321 469.208 79.2631 469.109 78.1038V77.9558C469.109 77.5611 469.282 77.3638 469.627 77.3638C469.676 77.3638 469.8 77.3885 469.997 77.4378C471.551 77.9558 472.328 78.3505 472.328 78.6218C472.328 78.7205 472.242 78.8191 472.069 78.9178C471.724 79.1398 471.551 79.4481 471.551 79.8428V82.2108C471.551 82.4575 471.613 82.6548 471.736 82.8028C471.884 82.9261 472.081 82.9878 472.328 82.9878H475.621ZM461.339 91.4978C461.586 91.4978 461.771 91.4361 461.894 91.3128C462.042 91.1648 462.116 90.9675 462.116 90.7208V84.8378C462.116 84.5911 462.042 84.4061 461.894 84.2828C461.771 84.1348 461.586 84.0608 461.339 84.0608H458.083C457.836 84.0608 457.639 84.1348 457.491 84.2828C457.368 84.4061 457.306 84.5911 457.306 84.8378V90.7208C457.306 90.9675 457.368 91.1648 457.491 91.3128C457.639 91.4361 457.836 91.4978 458.083 91.4978H461.339ZM468.554 91.4978C468.801 91.4978 468.986 91.4361 469.109 91.3128C469.257 91.1648 469.331 90.9675 469.331 90.7208V84.8378C469.331 84.5911 469.257 84.4061 469.109 84.2828C468.986 84.1348 468.801 84.0608 468.554 84.0608H465.113C464.866 84.0608 464.669 84.1348 464.521 84.2828C464.398 84.4061 464.336 84.5911 464.336 84.8378V90.7208C464.336 90.9675 464.398 91.1648 464.521 91.3128C464.669 91.4361 464.866 91.4978 465.113 91.4978H468.554ZM475.843 91.4978C476.09 91.4978 476.275 91.4361 476.398 91.3128C476.546 91.1648 476.62 90.9675 476.62 90.7208V84.8378C476.62 84.5911 476.546 84.4061 476.398 84.2828C476.275 84.1348 476.09 84.0608 475.843 84.0608H472.328C472.081 84.0608 471.884 84.1348 471.736 84.2828C471.613 84.4061 471.551 84.5911 471.551 84.8378V90.7208C471.551 90.9675 471.613 91.1648 471.736 91.3128C471.884 91.4361 472.081 91.4978 472.328 91.4978H475.843ZM462.116 93.3478C462.116 93.1011 462.042 92.9161 461.894 92.7928C461.771 92.6448 461.586 92.5708 461.339 92.5708H458.083C457.836 92.5708 457.639 92.6448 457.491 92.7928C457.368 92.9161 457.306 93.1011 457.306 93.3478V99.8228C457.306 100.07 457.368 100.267 457.491 100.415C457.639 100.538 457.836 100.6 458.083 100.6H461.339C461.586 100.6 461.771 100.538 461.894 100.415C462.042 100.267 462.116 100.07 462.116 99.8228V93.3478ZM464.336 99.8228C464.336 100.07 464.398 100.267 464.521 100.415C464.669 100.538 464.866 100.6 465.113 100.6H468.554C468.801 100.6 468.986 100.538 469.109 100.415C469.257 100.267 469.331 100.07 469.331 99.8228V93.3478C469.331 93.1011 469.257 92.9161 469.109 92.7928C468.986 92.6448 468.801 92.5708 468.554 92.5708H465.113C464.866 92.5708 464.669 92.6448 464.521 92.7928C464.398 92.9161 464.336 93.1011 464.336 93.3478V99.8228ZM476.62 93.3478C476.62 93.1011 476.546 92.9161 476.398 92.7928C476.275 92.6448 476.09 92.5708 475.843 92.5708H472.328C472.081 92.5708 471.884 92.6448 471.736 92.7928C471.613 92.9161 471.551 93.1011 471.551 93.3478V99.8228C471.551 100.07 471.613 100.267 471.736 100.415C471.884 100.538 472.081 100.6 472.328 100.6H475.843C476.09 100.6 476.275 100.538 476.398 100.415C476.546 100.267 476.62 100.07 476.62 99.8228V93.3478ZM461.006 102.931C461.203 102.66 461.401 102.524 461.598 102.524C461.746 102.524 461.906 102.586 462.079 102.709L462.967 103.338C463.14 103.461 463.411 103.609 463.781 103.782C464.373 104.053 464.669 104.288 464.669 104.485C464.669 104.608 464.496 104.695 464.151 104.744L463.855 104.781C463.485 104.83 463.177 104.954 462.93 105.151C461.598 106.187 459.945 107.198 457.972 108.185C455.999 109.196 454.001 110.01 451.978 110.627C451.756 110.701 451.571 110.738 451.423 110.738C451.275 110.738 451.189 110.689 451.164 110.59V110.516C451.164 110.319 451.361 110.134 451.756 109.961C453.236 109.246 454.79 108.358 456.418 107.297C458.465 105.866 459.995 104.411 461.006 102.931ZM471.44 103.93C471.07 103.733 470.885 103.548 470.885 103.375C470.885 103.227 471.008 103.153 471.255 103.153L471.736 103.227C474.326 103.868 476.423 104.584 478.026 105.373C479.629 106.162 480.764 106.927 481.43 107.667C482.096 108.407 482.429 109.073 482.429 109.665C482.429 110.035 482.318 110.319 482.096 110.516C481.899 110.738 481.64 110.849 481.319 110.849C480.875 110.849 480.48 110.676 480.135 110.331C479.346 109.27 478.211 108.185 476.731 107.075C475.251 105.965 473.487 104.917 471.44 103.93Z" fill="black"/>
<mask id="path-3-inside-1_518_15" fill="white">
<path d="M66.5 0C29.7973 0 0 29.7973 0 66.5C0 103.203 29.7973 133 66.5 133C103.136 133 132.882 103.309 132.989 66.6968C132.995 66.6314 132.999 66.5657 133 66.5C132.999 66.441 132.997 66.382 132.992 66.3231C132.896 29.7016 103.144 0 66.5 0ZM68.2955 4.03389C69.7159 4.07379 71.1284 4.15093 72.5249 4.28393C72.6074 4.32915 72.2336 4.36639 70.6802 4.76672C70.2626 4.50072 69.3449 4.25999 68.2955 4.03389ZM88.5727 10.2104C89.5702 10.0375 91.1688 10.9911 90.2192 12.8358C93.5868 16.1076 96.5407 21.6511 90.5158 24.069C89.3401 24.5757 87.7893 24.1634 87.2427 22.9385C88.4423 23.0689 88.2003 22.3586 86.712 20.4647C89.9851 21.139 82.7619 13.6897 83.0492 15.6674C75.4642 13.7376 84.5454 10.2982 88.1072 11.7865C87.5938 10.8209 87.9742 10.3142 88.5727 10.2104ZM94.2425 10.4751C97.695 12.184 100.982 14.2085 104.062 16.5226C103.818 16.8644 103.897 17.1104 105.006 17.2634C119.615 28.7001 129.01 46.4875 129.01 66.5C129.01 92.04 113.72 113.968 91.7939 123.671C93.0388 122.585 94.3542 121.235 95.6456 120.69C98.3402 118.049 105.877 112.763 102.562 109.458C101.303 106.855 98.6275 104.977 98.5051 101.826C94.6534 100.56 97.4385 91.5785 101.639 96.2827C104.989 100.065 108.646 92.7422 105.605 93.8554C100.966 94.047 106.275 90.4493 108.557 89.2191C110.629 84.8261 111.451 95.9888 113.521 91.2673C112.71 92.4403 118.772 95.5831 116.019 90.6994C112.398 90.7552 110.633 85.9087 107.749 85.7172C105.621 82.7912 104.421 85.9486 106.782 86.8064C108.059 89.8854 103.576 88.7363 102.197 90.4107C100.488 87.6164 93.91 86.7373 89.8974 86.7399C87.4754 85.8222 82.2153 84.995 79.6803 85.7092C80.5475 88.3187 75.802 91.7634 74.0438 87.913C69.68 87.7574 71.3572 86.0377 73.7166 84.1637C74.8471 79.2401 70.3051 86.5125 67.3672 83.3897C63.852 85.394 62.6696 90.1408 64.235 92.6478C68.5974 97.5688 62.2919 96.82 58.6184 96.3851C61.9381 94.7053 55.3054 95.1043 52.2437 93.4405C51.1664 95.9914 42.0626 90.4028 47.5196 90.2977C51.5947 88.7336 42.9391 88.0686 44.0257 85.0442C42.6265 80.7164 42.5201 76.7224 38.2734 73.3668C35.2277 70.0218 39.1831 63.5261 41.3524 69.7346C43.342 72.5701 44.5763 74.3018 47.3706 71.1005C52.3076 69.6348 51.3114 62.9077 48.0755 60.2583C42.7156 57.9947 52.2304 52.4339 50.2979 56.3215C47.1951 61.3396 55.2389 59.0906 53.47 55.0261C59.584 54.2946 65.5677 50.9204 68.0534 45.0272C72.07 40.3855 61.8357 35.4658 69.0616 33.3258C66.2154 31.1499 68.1293 31.6819 69.9607 30.6525C70.7454 31.0435 73.8629 34.7582 71.8147 36.2638C73.8296 39.1991 73.5876 38.1524 75.9031 36.5125C75.4908 39.1539 78.8251 39.3946 77.6521 42.9829C80.2482 41.0292 81.8775 37.3584 85.5283 37.2294C90.4028 37.7507 90.9028 31.1845 88.1019 27.4592C90.2737 27.6906 94.8716 22.9638 95.1575 19.0695C97.3227 16.2473 91.907 11.708 94.2744 11.1228C94.2461 10.9077 94.2355 10.6919 94.2425 10.4751ZM84.0627 18.0228C84.5282 18.1864 86.8291 24.2472 86.5537 25.4043C84.6944 27.0323 88.1285 31.8535 85.2636 32.1461C83.6384 34.6332 80.449 33.25 78.3742 36.5205C78.3476 37.0764 77.0802 37.0578 77.4565 36.3542C78.4115 32.44 72.6646 30.6392 76.7809 27.7757C79.8333 26.4457 84.0799 25.1423 84.3699 20.2253C83.9549 18.5695 83.9057 17.9683 84.0627 18.0228ZM8.34043 43.9698C8.46545 43.9578 8.60776 44.1028 8.77933 44.4446C14.1645 45.1469 9.50817 48.674 12.4116 51.3939C11.7093 57.0956 11.6242 63.2907 13.2495 68.9658C14.8455 68.9552 15.5703 68.1319 15.2764 72.0089C19.7252 74.6649 15.1886 65.4653 16.6928 63.433C16.8059 58.2527 22.5422 56.3308 25.7448 52.8994C31.4106 50.6225 30.719 58.6131 31.3774 61.6123C33.8778 61.0936 35.4405 61.0497 35.0522 64.896C33.7035 68.6812 34.4789 73.4785 37.0272 76.6373C39.4398 83.9416 34.6199 74.762 30.993 75.161C30.6605 77.9008 33.7767 81.2856 34.6784 83.9057C35.2862 89.2164 39.4212 88.3718 42.0772 92.2209C45.5206 96.3997 51.0228 97.0887 56.1353 97.6659C60.6108 97.5422 64.9 100.63 68.6426 100.021C65.162 99.3151 70.3371 97.1831 70.3105 98.7778C66.6264 103.924 76.9924 97.3121 76.3872 96.9158C81.6407 97.4478 73.8177 94.4234 71.4848 96.437C68.5562 98.9267 68.354 93.4179 67.7156 96.7229C66.6942 95.5844 65.8855 89.6885 68.6639 94.1401C73.545 96.0686 70.8664 91.0305 68.6426 88.8254C72.8521 88.731 75.2886 93.0707 80.2336 91.0678C85.8887 94.0842 78.7254 88.1311 82.4334 88.5315C82.5864 93.91 89.509 89.6181 91.4348 94.1972C87.3278 97.4877 92.6066 95.4528 94.4539 97.094C96.6631 97.1578 92.7223 107.55 91.9309 104.926C87.1177 105.285 87.9183 103.788 89.0528 100.166C88.0367 99.9854 79.8053 98.6288 79.6231 101.395C79.7202 105.892 75.5985 102.664 72.8042 104.144C68.6892 106.973 65.9401 111.559 60.1985 111.157C52.8063 112.803 60.4565 118.905 60.0389 122.512C65.0756 125.032 71.6817 121.363 77.2624 120.936C81.4306 120.914 83.7421 123.48 87.3358 123.658C87.6776 124.404 88.0593 124.827 88.4716 125.035C81.4457 127.668 74.0031 129.014 66.5 129.01C31.9533 129.01 3.99 101.047 3.99 66.5C3.99 61.4819 4.59781 56.6101 5.71235 51.9352C7.51184 49.8577 7.58499 44.035 8.34043 43.9698ZM67.7888 49.1821C66.3391 49.085 63.8161 51.4032 65.9361 53.7972C68.5336 54.9676 67.4815 53.5086 67.9963 52.4672C69.1401 50.1663 68.6573 49.2393 67.7888 49.1821ZM67.3831 57.6063C66.355 57.7087 65.3243 58.8764 65.17 61.3702C64.8202 65.1115 67.052 67.7741 63.6405 70.5445C60.245 73.9693 58.6623 79.687 53.2732 80.9478C50.8725 85.9326 49.8058 78.9408 47.8906 78.6057C49.8497 81.5503 47.4198 86.599 50.4416 88.4064C51.3114 91.9948 57.9481 90.9973 59.2728 92.2235C61.1268 93.2716 61.1002 85.8049 63.5022 85.5536C66.25 83.9682 60.4365 80.9026 64.4771 79.6364C68.3022 79.8492 69.7665 72.6326 72.1445 78.091C77.8462 78.99 75.3538 69.4194 72.9558 67.02C73.3123 64.4438 66.2327 64.3733 69.4765 61.9261C70.0245 59.0986 68.7051 57.4733 67.3831 57.6063ZM66.6968 68.882C67.2249 70.4647 66.7793 70.2094 68.3647 69.7106C68.3913 72.2589 69.1573 76.354 65.8217 77.535L65.5078 77.8263L64.513 77.821C58.3631 75.2647 65.718 71.9796 66.6968 68.882ZM78.2851 82.3682C77.0748 82.2445 74.7008 84.854 75.8645 87.8997C76.8913 90.0583 78.9741 87.5619 78.1947 86.039C79.3199 83.5027 79.0126 82.444 78.2851 82.3682Z"/>
</mask>
<path d="M66.5 0C29.7973 0 0 29.7973 0 66.5C0 103.203 29.7973 133 66.5 133C103.136 133 132.882 103.309 132.989 66.6968C132.995 66.6314 132.999 66.5657 133 66.5C132.999 66.441 132.997 66.382 132.992 66.3231C132.896 29.7016 103.144 0 66.5 0ZM68.2955 4.03389C69.7159 4.07379 71.1284 4.15093 72.5249 4.28393C72.6074 4.32915 72.2336 4.36639 70.6802 4.76672C70.2626 4.50072 69.3449 4.25999 68.2955 4.03389ZM88.5727 10.2104C89.5702 10.0375 91.1688 10.9911 90.2192 12.8358C93.5868 16.1076 96.5407 21.6511 90.5158 24.069C89.3401 24.5757 87.7893 24.1634 87.2427 22.9385C88.4423 23.0689 88.2003 22.3586 86.712 20.4647C89.9851 21.139 82.7619 13.6897 83.0492 15.6674C75.4642 13.7376 84.5454 10.2982 88.1072 11.7865C87.5938 10.8209 87.9742 10.3142 88.5727 10.2104ZM94.2425 10.4751C97.695 12.184 100.982 14.2085 104.062 16.5226C103.818 16.8644 103.897 17.1104 105.006 17.2634C119.615 28.7001 129.01 46.4875 129.01 66.5C129.01 92.04 113.72 113.968 91.7939 123.671C93.0388 122.585 94.3542 121.235 95.6456 120.69C98.3402 118.049 105.877 112.763 102.562 109.458C101.303 106.855 98.6275 104.977 98.5051 101.826C94.6534 100.56 97.4385 91.5785 101.639 96.2827C104.989 100.065 108.646 92.7422 105.605 93.8554C100.966 94.047 106.275 90.4493 108.557 89.2191C110.629 84.8261 111.451 95.9888 113.521 91.2673C112.71 92.4403 118.772 95.5831 116.019 90.6994C112.398 90.7552 110.633 85.9087 107.749 85.7172C105.621 82.7912 104.421 85.9486 106.782 86.8064C108.059 89.8854 103.576 88.7363 102.197 90.4107C100.488 87.6164 93.91 86.7373 89.8974 86.7399C87.4754 85.8222 82.2153 84.995 79.6803 85.7092C80.5475 88.3187 75.802 91.7634 74.0438 87.913C69.68 87.7574 71.3572 86.0377 73.7166 84.1637C74.8471 79.2401 70.3051 86.5125 67.3672 83.3897C63.852 85.394 62.6696 90.1408 64.235 92.6478C68.5974 97.5688 62.2919 96.82 58.6184 96.3851C61.9381 94.7053 55.3054 95.1043 52.2437 93.4405C51.1664 95.9914 42.0626 90.4028 47.5196 90.2977C51.5947 88.7336 42.9391 88.0686 44.0257 85.0442C42.6265 80.7164 42.5201 76.7224 38.2734 73.3668C35.2277 70.0218 39.1831 63.5261 41.3524 69.7346C43.342 72.5701 44.5763 74.3018 47.3706 71.1005C52.3076 69.6348 51.3114 62.9077 48.0755 60.2583C42.7156 57.9947 52.2304 52.4339 50.2979 56.3215C47.1951 61.3396 55.2389 59.0906 53.47 55.0261C59.584 54.2946 65.5677 50.9204 68.0534 45.0272C72.07 40.3855 61.8357 35.4658 69.0616 33.3258C66.2154 31.1499 68.1293 31.6819 69.9607 30.6525C70.7454 31.0435 73.8629 34.7582 71.8147 36.2638C73.8296 39.1991 73.5876 38.1524 75.9031 36.5125C75.4908 39.1539 78.8251 39.3946 77.6521 42.9829C80.2482 41.0292 81.8775 37.3584 85.5283 37.2294C90.4028 37.7507 90.9028 31.1845 88.1019 27.4592C90.2737 27.6906 94.8716 22.9638 95.1575 19.0695C97.3227 16.2473 91.907 11.708 94.2744 11.1228C94.2461 10.9077 94.2355 10.6919 94.2425 10.4751ZM84.0627 18.0228C84.5282 18.1864 86.8291 24.2472 86.5537 25.4043C84.6944 27.0323 88.1285 31.8535 85.2636 32.1461C83.6384 34.6332 80.449 33.25 78.3742 36.5205C78.3476 37.0764 77.0802 37.0578 77.4565 36.3542C78.4115 32.44 72.6646 30.6392 76.7809 27.7757C79.8333 26.4457 84.0799 25.1423 84.3699 20.2253C83.9549 18.5695 83.9057 17.9683 84.0627 18.0228ZM8.34043 43.9698C8.46545 43.9578 8.60776 44.1028 8.77933 44.4446C14.1645 45.1469 9.50817 48.674 12.4116 51.3939C11.7093 57.0956 11.6242 63.2907 13.2495 68.9658C14.8455 68.9552 15.5703 68.1319 15.2764 72.0089C19.7252 74.6649 15.1886 65.4653 16.6928 63.433C16.8059 58.2527 22.5422 56.3308 25.7448 52.8994C31.4106 50.6225 30.719 58.6131 31.3774 61.6123C33.8778 61.0936 35.4405 61.0497 35.0522 64.896C33.7035 68.6812 34.4789 73.4785 37.0272 76.6373C39.4398 83.9416 34.6199 74.762 30.993 75.161C30.6605 77.9008 33.7767 81.2856 34.6784 83.9057C35.2862 89.2164 39.4212 88.3718 42.0772 92.2209C45.5206 96.3997 51.0228 97.0887 56.1353 97.6659C60.6108 97.5422 64.9 100.63 68.6426 100.021C65.162 99.3151 70.3371 97.1831 70.3105 98.7778C66.6264 103.924 76.9924 97.3121 76.3872 96.9158C81.6407 97.4478 73.8177 94.4234 71.4848 96.437C68.5562 98.9267 68.354 93.4179 67.7156 96.7229C66.6942 95.5844 65.8855 89.6885 68.6639 94.1401C73.545 96.0686 70.8664 91.0305 68.6426 88.8254C72.8521 88.731 75.2886 93.0707 80.2336 91.0678C85.8887 94.0842 78.7254 88.1311 82.4334 88.5315C82.5864 93.91 89.509 89.6181 91.4348 94.1972C87.3278 97.4877 92.6066 95.4528 94.4539 97.094C96.6631 97.1578 92.7223 107.55 91.9309 104.926C87.1177 105.285 87.9183 103.788 89.0528 100.166C88.0367 99.9854 79.8053 98.6288 79.6231 101.395C79.7202 105.892 75.5985 102.664 72.8042 104.144C68.6892 106.973 65.9401 111.559 60.1985 111.157C52.8063 112.803 60.4565 118.905 60.0389 122.512C65.0756 125.032 71.6817 121.363 77.2624 120.936C81.4306 120.914 83.7421 123.48 87.3358 123.658C87.6776 124.404 88.0593 124.827 88.4716 125.035C81.4457 127.668 74.0031 129.014 66.5 129.01C31.9533 129.01 3.99 101.047 3.99 66.5C3.99 61.4819 4.59781 56.6101 5.71235 51.9352C7.51184 49.8577 7.58499 44.035 8.34043 43.9698ZM67.7888 49.1821C66.3391 49.085 63.8161 51.4032 65.9361 53.7972C68.5336 54.9676 67.4815 53.5086 67.9963 52.4672C69.1401 50.1663 68.6573 49.2393 67.7888 49.1821ZM67.3831 57.6063C66.355 57.7087 65.3243 58.8764 65.17 61.3702C64.8202 65.1115 67.052 67.7741 63.6405 70.5445C60.245 73.9693 58.6623 79.687 53.2732 80.9478C50.8725 85.9326 49.8058 78.9408 47.8906 78.6057C49.8497 81.5503 47.4198 86.599 50.4416 88.4064C51.3114 91.9948 57.9481 90.9973 59.2728 92.2235C61.1268 93.2716 61.1002 85.8049 63.5022 85.5536C66.25 83.9682 60.4365 80.9026 64.4771 79.6364C68.3022 79.8492 69.7665 72.6326 72.1445 78.091C77.8462 78.99 75.3538 69.4194 72.9558 67.02C73.3123 64.4438 66.2327 64.3733 69.4765 61.9261C70.0245 59.0986 68.7051 57.4733 67.3831 57.6063ZM66.6968 68.882C67.2249 70.4647 66.7793 70.2094 68.3647 69.7106C68.3913 72.2589 69.1573 76.354 65.8217 77.535L65.5078 77.8263L64.513 77.821C58.3631 75.2647 65.718 71.9796 66.6968 68.882ZM78.2851 82.3682C77.0748 82.2445 74.7008 84.854 75.8645 87.8997C76.8913 90.0583 78.9741 87.5619 78.1947 86.039C79.3199 83.5027 79.0126 82.444 78.2851 82.3682Z" fill="#DADADA"/>
<path d="M66.5 0C29.7973 0 0 29.7973 0 66.5C0 103.203 29.7973 133 66.5 133C103.136 133 132.882 103.309 132.989 66.6968C132.995 66.6314 132.999 66.5657 133 66.5C132.999 66.441 132.997 66.382 132.992 66.3231C132.896 29.7016 103.144 0 66.5 0ZM68.2955 4.03389C69.7159 4.07379 71.1284 4.15093 72.5249 4.28393C72.6074 4.32915 72.2336 4.36639 70.6802 4.76672C70.2626 4.50072 69.3449 4.25999 68.2955 4.03389ZM88.5727 10.2104C89.5702 10.0375 91.1688 10.9911 90.2192 12.8358C93.5868 16.1076 96.5407 21.6511 90.5158 24.069C89.3401 24.5757 87.7893 24.1634 87.2427 22.9385C88.4423 23.0689 88.2003 22.3586 86.712 20.4647C89.9851 21.139 82.7619 13.6897 83.0492 15.6674C75.4642 13.7376 84.5454 10.2982 88.1072 11.7865C87.5938 10.8209 87.9742 10.3142 88.5727 10.2104ZM94.2425 10.4751C97.695 12.184 100.982 14.2085 104.062 16.5226C103.818 16.8644 103.897 17.1104 105.006 17.2634C119.615 28.7001 129.01 46.4875 129.01 66.5C129.01 92.04 113.72 113.968 91.7939 123.671C93.0388 122.585 94.3542 121.235 95.6456 120.69C98.3402 118.049 105.877 112.763 102.562 109.458C101.303 106.855 98.6275 104.977 98.5051 101.826C94.6534 100.56 97.4385 91.5785 101.639 96.2827C104.989 100.065 108.646 92.7422 105.605 93.8554C100.966 94.047 106.275 90.4493 108.557 89.2191C110.629 84.8261 111.451 95.9888 113.521 91.2673C112.71 92.4403 118.772 95.5831 116.019 90.6994C112.398 90.7552 110.633 85.9087 107.749 85.7172C105.621 82.7912 104.421 85.9486 106.782 86.8064C108.059 89.8854 103.576 88.7363 102.197 90.4107C100.488 87.6164 93.91 86.7373 89.8974 86.7399C87.4754 85.8222 82.2153 84.995 79.6803 85.7092C80.5475 88.3187 75.802 91.7634 74.0438 87.913C69.68 87.7574 71.3572 86.0377 73.7166 84.1637C74.8471 79.2401 70.3051 86.5125 67.3672 83.3897C63.852 85.394 62.6696 90.1408 64.235 92.6478C68.5974 97.5688 62.2919 96.82 58.6184 96.3851C61.9381 94.7053 55.3054 95.1043 52.2437 93.4405C51.1664 95.9914 42.0626 90.4028 47.5196 90.2977C51.5947 88.7336 42.9391 88.0686 44.0257 85.0442C42.6265 80.7164 42.5201 76.7224 38.2734 73.3668C35.2277 70.0218 39.1831 63.5261 41.3524 69.7346C43.342 72.5701 44.5763 74.3018 47.3706 71.1005C52.3076 69.6348 51.3114 62.9077 48.0755 60.2583C42.7156 57.9947 52.2304 52.4339 50.2979 56.3215C47.1951 61.3396 55.2389 59.0906 53.47 55.0261C59.584 54.2946 65.5677 50.9204 68.0534 45.0272C72.07 40.3855 61.8357 35.4658 69.0616 33.3258C66.2154 31.1499 68.1293 31.6819 69.9607 30.6525C70.7454 31.0435 73.8629 34.7582 71.8147 36.2638C73.8296 39.1991 73.5876 38.1524 75.9031 36.5125C75.4908 39.1539 78.8251 39.3946 77.6521 42.9829C80.2482 41.0292 81.8775 37.3584 85.5283 37.2294C90.4028 37.7507 90.9028 31.1845 88.1019 27.4592C90.2737 27.6906 94.8716 22.9638 95.1575 19.0695C97.3227 16.2473 91.907 11.708 94.2744 11.1228C94.2461 10.9077 94.2355 10.6919 94.2425 10.4751ZM84.0627 18.0228C84.5282 18.1864 86.8291 24.2472 86.5537 25.4043C84.6944 27.0323 88.1285 31.8535 85.2636 32.1461C83.6384 34.6332 80.449 33.25 78.3742 36.5205C78.3476 37.0764 77.0802 37.0578 77.4565 36.3542C78.4115 32.44 72.6646 30.6392 76.7809 27.7757C79.8333 26.4457 84.0799 25.1423 84.3699 20.2253C83.9549 18.5695 83.9057 17.9683 84.0627 18.0228ZM8.34043 43.9698C8.46545 43.9578 8.60776 44.1028 8.77933 44.4446C14.1645 45.1469 9.50817 48.674 12.4116 51.3939C11.7093 57.0956 11.6242 63.2907 13.2495 68.9658C14.8455 68.9552 15.5703 68.1319 15.2764 72.0089C19.7252 74.6649 15.1886 65.4653 16.6928 63.433C16.8059 58.2527 22.5422 56.3308 25.7448 52.8994C31.4106 50.6225 30.719 58.6131 31.3774 61.6123C33.8778 61.0936 35.4405 61.0497 35.0522 64.896C33.7035 68.6812 34.4789 73.4785 37.0272 76.6373C39.4398 83.9416 34.6199 74.762 30.993 75.161C30.6605 77.9008 33.7767 81.2856 34.6784 83.9057C35.2862 89.2164 39.4212 88.3718 42.0772 92.2209C45.5206 96.3997 51.0228 97.0887 56.1353 97.6659C60.6108 97.5422 64.9 100.63 68.6426 100.021C65.162 99.3151 70.3371 97.1831 70.3105 98.7778C66.6264 103.924 76.9924 97.3121 76.3872 96.9158C81.6407 97.4478 73.8177 94.4234 71.4848 96.437C68.5562 98.9267 68.354 93.4179 67.7156 96.7229C66.6942 95.5844 65.8855 89.6885 68.6639 94.1401C73.545 96.0686 70.8664 91.0305 68.6426 88.8254C72.8521 88.731 75.2886 93.0707 80.2336 91.0678C85.8887 94.0842 78.7254 88.1311 82.4334 88.5315C82.5864 93.91 89.509 89.6181 91.4348 94.1972C87.3278 97.4877 92.6066 95.4528 94.4539 97.094C96.6631 97.1578 92.7223 107.55 91.9309 104.926C87.1177 105.285 87.9183 103.788 89.0528 100.166C88.0367 99.9854 79.8053 98.6288 79.6231 101.395C79.7202 105.892 75.5985 102.664 72.8042 104.144C68.6892 106.973 65.9401 111.559 60.1985 111.157C52.8063 112.803 60.4565 118.905 60.0389 122.512C65.0756 125.032 71.6817 121.363 77.2624 120.936C81.4306 120.914 83.7421 123.48 87.3358 123.658C87.6776 124.404 88.0593 124.827 88.4716 125.035C81.4457 127.668 74.0031 129.014 66.5 129.01C31.9533 129.01 3.99 101.047 3.99 66.5C3.99 61.4819 4.59781 56.6101 5.71235 51.9352C7.51184 49.8577 7.58499 44.035 8.34043 43.9698ZM67.7888 49.1821C66.3391 49.085 63.8161 51.4032 65.9361 53.7972C68.5336 54.9676 67.4815 53.5086 67.9963 52.4672C69.1401 50.1663 68.6573 49.2393 67.7888 49.1821ZM67.3831 57.6063C66.355 57.7087 65.3243 58.8764 65.17 61.3702C64.8202 65.1115 67.052 67.7741 63.6405 70.5445C60.245 73.9693 58.6623 79.687 53.2732 80.9478C50.8725 85.9326 49.8058 78.9408 47.8906 78.6057C49.8497 81.5503 47.4198 86.599 50.4416 88.4064C51.3114 91.9948 57.9481 90.9973 59.2728 92.2235C61.1268 93.2716 61.1002 85.8049 63.5022 85.5536C66.25 83.9682 60.4365 80.9026 64.4771 79.6364C68.3022 79.8492 69.7665 72.6326 72.1445 78.091C77.8462 78.99 75.3538 69.4194 72.9558 67.02C73.3123 64.4438 66.2327 64.3733 69.4765 61.9261C70.0245 59.0986 68.7051 57.4733 67.3831 57.6063ZM66.6968 68.882C67.2249 70.4647 66.7793 70.2094 68.3647 69.7106C68.3913 72.2589 69.1573 76.354 65.8217 77.535L65.5078 77.8263L64.513 77.821C58.3631 75.2647 65.718 71.9796 66.6968 68.882ZM78.2851 82.3682C77.0748 82.2445 74.7008 84.854 75.8645 87.8997C76.8913 90.0583 78.9741 87.5619 78.1947 86.039C79.3199 83.5027 79.0126 82.444 78.2851 82.3682Z" fill="url(#paint0_linear_518_15)" fill-opacity="0.25"/>
<path d="M66.5 0C29.7973 0 0 29.7973 0 66.5C0 103.203 29.7973 133 66.5 133C103.136 133 132.882 103.309 132.989 66.6968C132.995 66.6314 132.999 66.5657 133 66.5C132.999 66.441 132.997 66.382 132.992 66.3231C132.896 29.7016 103.144 0 66.5 0ZM68.2955 4.03389C69.7159 4.07379 71.1284 4.15093 72.5249 4.28393C72.6074 4.32915 72.2336 4.36639 70.6802 4.76672C70.2626 4.50072 69.3449 4.25999 68.2955 4.03389ZM88.5727 10.2104C89.5702 10.0375 91.1688 10.9911 90.2192 12.8358C93.5868 16.1076 96.5407 21.6511 90.5158 24.069C89.3401 24.5757 87.7893 24.1634 87.2427 22.9385C88.4423 23.0689 88.2003 22.3586 86.712 20.4647C89.9851 21.139 82.7619 13.6897 83.0492 15.6674C75.4642 13.7376 84.5454 10.2982 88.1072 11.7865C87.5938 10.8209 87.9742 10.3142 88.5727 10.2104ZM94.2425 10.4751C97.695 12.184 100.982 14.2085 104.062 16.5226C103.818 16.8644 103.897 17.1104 105.006 17.2634C119.615 28.7001 129.01 46.4875 129.01 66.5C129.01 92.04 113.72 113.968 91.7939 123.671C93.0388 122.585 94.3542 121.235 95.6456 120.69C98.3402 118.049 105.877 112.763 102.562 109.458C101.303 106.855 98.6275 104.977 98.5051 101.826C94.6534 100.56 97.4385 91.5785 101.639 96.2827C104.989 100.065 108.646 92.7422 105.605 93.8554C100.966 94.047 106.275 90.4493 108.557 89.2191C110.629 84.8261 111.451 95.9888 113.521 91.2673C112.71 92.4403 118.772 95.5831 116.019 90.6994C112.398 90.7552 110.633 85.9087 107.749 85.7172C105.621 82.7912 104.421 85.9486 106.782 86.8064C108.059 89.8854 103.576 88.7363 102.197 90.4107C100.488 87.6164 93.91 86.7373 89.8974 86.7399C87.4754 85.8222 82.2153 84.995 79.6803 85.7092C80.5475 88.3187 75.802 91.7634 74.0438 87.913C69.68 87.7574 71.3572 86.0377 73.7166 84.1637C74.8471 79.2401 70.3051 86.5125 67.3672 83.3897C63.852 85.394 62.6696 90.1408 64.235 92.6478C68.5974 97.5688 62.2919 96.82 58.6184 96.3851C61.9381 94.7053 55.3054 95.1043 52.2437 93.4405C51.1664 95.9914 42.0626 90.4028 47.5196 90.2977C51.5947 88.7336 42.9391 88.0686 44.0257 85.0442C42.6265 80.7164 42.5201 76.7224 38.2734 73.3668C35.2277 70.0218 39.1831 63.5261 41.3524 69.7346C43.342 72.5701 44.5763 74.3018 47.3706 71.1005C52.3076 69.6348 51.3114 62.9077 48.0755 60.2583C42.7156 57.9947 52.2304 52.4339 50.2979 56.3215C47.1951 61.3396 55.2389 59.0906 53.47 55.0261C59.584 54.2946 65.5677 50.9204 68.0534 45.0272C72.07 40.3855 61.8357 35.4658 69.0616 33.3258C66.2154 31.1499 68.1293 31.6819 69.9607 30.6525C70.7454 31.0435 73.8629 34.7582 71.8147 36.2638C73.8296 39.1991 73.5876 38.1524 75.9031 36.5125C75.4908 39.1539 78.8251 39.3946 77.6521 42.9829C80.2482 41.0292 81.8775 37.3584 85.5283 37.2294C90.4028 37.7507 90.9028 31.1845 88.1019 27.4592C90.2737 27.6906 94.8716 22.9638 95.1575 19.0695C97.3227 16.2473 91.907 11.708 94.2744 11.1228C94.2461 10.9077 94.2355 10.6919 94.2425 10.4751ZM84.0627 18.0228C84.5282 18.1864 86.8291 24.2472 86.5537 25.4043C84.6944 27.0323 88.1285 31.8535 85.2636 32.1461C83.6384 34.6332 80.449 33.25 78.3742 36.5205C78.3476 37.0764 77.0802 37.0578 77.4565 36.3542C78.4115 32.44 72.6646 30.6392 76.7809 27.7757C79.8333 26.4457 84.0799 25.1423 84.3699 20.2253C83.9549 18.5695 83.9057 17.9683 84.0627 18.0228ZM8.34043 43.9698C8.46545 43.9578 8.60776 44.1028 8.77933 44.4446C14.1645 45.1469 9.50817 48.674 12.4116 51.3939C11.7093 57.0956 11.6242 63.2907 13.2495 68.9658C14.8455 68.9552 15.5703 68.1319 15.2764 72.0089C19.7252 74.6649 15.1886 65.4653 16.6928 63.433C16.8059 58.2527 22.5422 56.3308 25.7448 52.8994C31.4106 50.6225 30.719 58.6131 31.3774 61.6123C33.8778 61.0936 35.4405 61.0497 35.0522 64.896C33.7035 68.6812 34.4789 73.4785 37.0272 76.6373C39.4398 83.9416 34.6199 74.762 30.993 75.161C30.6605 77.9008 33.7767 81.2856 34.6784 83.9057C35.2862 89.2164 39.4212 88.3718 42.0772 92.2209C45.5206 96.3997 51.0228 97.0887 56.1353 97.6659C60.6108 97.5422 64.9 100.63 68.6426 100.021C65.162 99.3151 70.3371 97.1831 70.3105 98.7778C66.6264 103.924 76.9924 97.3121 76.3872 96.9158C81.6407 97.4478 73.8177 94.4234 71.4848 96.437C68.5562 98.9267 68.354 93.4179 67.7156 96.7229C66.6942 95.5844 65.8855 89.6885 68.6639 94.1401C73.545 96.0686 70.8664 91.0305 68.6426 88.8254C72.8521 88.731 75.2886 93.0707 80.2336 91.0678C85.8887 94.0842 78.7254 88.1311 82.4334 88.5315C82.5864 93.91 89.509 89.6181 91.4348 94.1972C87.3278 97.4877 92.6066 95.4528 94.4539 97.094C96.6631 97.1578 92.7223 107.55 91.9309 104.926C87.1177 105.285 87.9183 103.788 89.0528 100.166C88.0367 99.9854 79.8053 98.6288 79.6231 101.395C79.7202 105.892 75.5985 102.664 72.8042 104.144C68.6892 106.973 65.9401 111.559 60.1985 111.157C52.8063 112.803 60.4565 118.905 60.0389 122.512C65.0756 125.032 71.6817 121.363 77.2624 120.936C81.4306 120.914 83.7421 123.48 87.3358 123.658C87.6776 124.404 88.0593 124.827 88.4716 125.035C81.4457 127.668 74.0031 129.014 66.5 129.01C31.9533 129.01 3.99 101.047 3.99 66.5C3.99 61.4819 4.59781 56.6101 5.71235 51.9352C7.51184 49.8577 7.58499 44.035 8.34043 43.9698ZM67.7888 49.1821C66.3391 49.085 63.8161 51.4032 65.9361 53.7972C68.5336 54.9676 67.4815 53.5086 67.9963 52.4672C69.1401 50.1663 68.6573 49.2393 67.7888 49.1821ZM67.3831 57.6063C66.355 57.7087 65.3243 58.8764 65.17 61.3702C64.8202 65.1115 67.052 67.7741 63.6405 70.5445C60.245 73.9693 58.6623 79.687 53.2732 80.9478C50.8725 85.9326 49.8058 78.9408 47.8906 78.6057C49.8497 81.5503 47.4198 86.599 50.4416 88.4064C51.3114 91.9948 57.9481 90.9973 59.2728 92.2235C61.1268 93.2716 61.1002 85.8049 63.5022 85.5536C66.25 83.9682 60.4365 80.9026 64.4771 79.6364C68.3022 79.8492 69.7665 72.6326 72.1445 78.091C77.8462 78.99 75.3538 69.4194 72.9558 67.02C73.3123 64.4438 66.2327 64.3733 69.4765 61.9261C70.0245 59.0986 68.7051 57.4733 67.3831 57.6063ZM66.6968 68.882C67.2249 70.4647 66.7793 70.2094 68.3647 69.7106C68.3913 72.2589 69.1573 76.354 65.8217 77.535L65.5078 77.8263L64.513 77.821C58.3631 75.2647 65.718 71.9796 66.6968 68.882ZM78.2851 82.3682C77.0748 82.2445 74.7008 84.854 75.8645 87.8997C76.8913 90.0583 78.9741 87.5619 78.1947 86.039C79.3199 83.5027 79.0126 82.444 78.2851 82.3682Z" stroke="black" stroke-width="2" mask="url(#path-3-inside-1_518_15)"/>
<defs>
<linearGradient id="paint0_linear_518_15" x1="33.5" y1="13" x2="88.5" y2="75.5" gradientUnits="userSpaceOnUse">
<stop stop-color="white" stop-opacity="0"/>
<stop offset="0.29" stop-opacity="0.0349645"/>
<stop offset="0.705" stop-opacity="0.085"/>
<stop offset="1"/>
</linearGradient>
</defs>
</svg>
